<svg xmlns="http://www.w3.org/2000/svg" viewBox="0 0 512 512">
  <defs>
    <style>
      .a {
        fill: #b496e9;
      }

      .b {
        fill: #7740d7;
      }
    </style>
  </defs>
  <title>institution</title>
  <rect class="a" x="58.2" y="219.2" width="81.8" height="205.97"/>
  <path class="b" d="M478.2,230.7H33.8a33.7,33.7,0,0,1-19.7-61.1L236.3,10a34,34,0,0,1,39.4,0L497.9,169.6a33.7,33.7,0,0,1-19.7,61.1ZM256,30.9a6,6,0,0,0-3.8,1.3L30.1,191.7a6.5,6.5,0,0,0,3.7,11.8H478.2a6.5,6.5,0,0,0,3.7-11.8L259.8,32.2A6,6,0,0,0,256,30.9Z"/>
  <rect class="a" x="215.1" y="219.2" width="81.8" height="205.97"/>
  <path class="b" d="M153.7,438.8H44.6V205.5H153.7ZM71.9,411.5h54.5V232.8H71.9Z"/>
  <rect class="a" x="371.9" y="219.2" width="81.8" height="205.97"/>
  <path class="b" d="M310.6,438.8H201.4V205.5H310.6Zm-81.9-27.3h54.6V232.8H228.7V411.5Z"/>
  <g>
    <path class="b" d="M467.4,438.8H358.3V205.5H467.4V438.8Zm-81.8-27.3h54.5V232.8H385.6Z"/>
    <path class="b" d="M478,508.3H34a29.1,29.1,0,0,1-29.1-29V442A29.1,29.1,0,0,1,34,412.9H478A29.1,29.1,0,0,1,507.1,442v37.3A29.1,29.1,0,0,1,478,508.3ZM34,440.1a1.9,1.9,0,0,0-1.8,1.9v37.3a1.8,1.8,0,0,0,1.8,1.8H478a1.8,1.8,0,0,0,1.8-1.8V442a1.9,1.9,0,0,0-1.8-1.9Z"/>
  </g>
</svg>
