<svg xmlns="http://www.w3.org/2000/svg" viewBox="0 0 111 111">
  <defs>
    <style>
      .a {
        fill: #7740d7;
      }

      .b {
        fill: none;
      }

      .c {
        fill: #572f9d;
      }
    </style>
  </defs>
  <title>logo-color</title>
  <g>
    <path class="a" d="M55.5,0A55.5,55.5,0,1,0,111,55.5,55.6,55.6,0,0,0,55.5,0ZM92.9,92.7H83.3A45.6,45.6,0,0,1,55.5,102,46.5,46.5,0,1,1,92.9,83.1Z"/>
    <path class="b" d="M92.9,92.7H83.3A45.6,45.6,0,0,1,55.5,102,46.5,46.5,0,1,1,92.9,83.1Z"/>
    <g>
      <path class="c" d="M68.4,23.1s7.2,3.5-2.3,7.2S35.9,36.2,31.8,50.9,47.4,68.1,47.4,68.1s19.7,3.6,20.4,6.1a99,99,0,0,1-9.3,6.1c-3.5,1.8-6.3,3.6-1.6,7.6,0,0-3-1.7,10.1-7.3s5.8-13.3,4-14.9S52.3,59.1,45.5,55.5c0,0,12.6-4.3,19.9-6.2,4.9-1.2,14.4-5.5,14.4-13C79.8,32.2,78.8,25.3,68.4,23.1Z"/>
      <g>
        <path class="a" d="M66.8,74.9h0a80.1,80.1,0,0,1-8.3,5.4c-3.5,1.8-6.2,3.6-1.8,7.5-.4-.5-.8-2.5,10.3-7.2,13.1-5.7,5.8-13.3,4-14.9-.1-.2-.4-.3-.8-.5C71.2,67,72.5,71.1,66.8,74.9Z"/>
        <path class="a" d="M79.8,36.3c0-4.1-1-11-11.4-13.2,0,0,7.2,3.5-2.3,7.2S35.9,36.2,31.8,50.9c-2,7,1.4,11.2,5.6,13.7-1-2.6.1-7.3,14.3-11.2,4.2-1.3,9.7-3.1,13.7-4.1S79.8,43.8,79.8,36.3Z"/>
        <path class="a" d="M56.7,87.8h0Z"/>
      </g>
    </g>
  </g>
</svg>
