<svg xmlns="http://www.w3.org/2000/svg" viewBox="-15 -15 305.4 596.7">
  <!-- 275.4 566.7 -->
  <title>one+</title>
  <g>
    <g>
      <circle cx="110.3" cy="19.4" r="5.8" style="fill: #0f0d0e"/>
      <circle cx="110.3" cy="19.4" r="4.1" style="fill: #414042"/>
    </g>
    <g>
      <path d="M2.1,170.8A2.1,2.1,0,0,0,0,172.6v70.3a2.1,2.1,0,0,0,2.1,1.8" style="fill: #9c74e1"/>
      <path d="M273.5,173.6a1.8,1.8,0,0,1,1.9,1.7v40.5a2,2,0,0,1-1.9,1.9Z" style="fill: #9c74e1"/>
      <path d="M238.1,1.9S189.5,0,138.2,0C113.6,0,89,.6,64.4,1.3,45.5,1.8,23.5-1.5,10,14.7A35.8,35.8,0,0,0,1.8,37.3V529.4a35.4,35.4,0,0,0,35.4,35.3s48.6,2,99.9,2c38.9,0,79.3-2,101-2a35.4,35.4,0,0,0,35.4-35.3V37.3A35.5,35.5,0,0,0,238.1,1.9Z" style="fill: #4c2989;filter:drop-shadow(0 0 5px rgba(0,0,0,.5))"/>
      <rect x="9.5" y="32" width="257.5" height="502.75" rx="4" ry="4" style="fill: #f4f9f6"/>
      <g>
        <rect x="120.5" y="17" width="34.3" height="4.66" rx="1.6" ry="1.6" style="fill: #371e62"/>
        <g>
          <circle cx="124.2" cy="19.4" r="0.4" style="fill: #3d3d3d"/>
          <circle cx="126.9" cy="19.4" r="0.4" style="fill: #3d3d3d"/>
          <circle cx="129.6" cy="19.4" r="0.4" style="fill: #3d3d3d"/>
          <circle cx="132.3" cy="19.4" r="0.4" style="fill: #3d3d3d"/>
          <circle cx="135" cy="19.4" r="0.4" style="fill: #3d3d3d"/>
          <circle cx="137.7" cy="19.4" r="0.4" style="fill: #3d3d3d"/>
          <circle cx="140.3" cy="19.4" r="0.4" style="fill: #3d3d3d"/>
          <circle cx="143" cy="19.4" r="0.4" style="fill: #3d3d3d"/>
          <circle cx="145.7" cy="19.4" r="0.4" style="fill: #3d3d3d"/>
          <circle cx="148.4" cy="19.4" r="0.4" style="fill: #3d3d3d"/>
          <circle cx="151.1" cy="19.4" r="0.4" style="fill: #3d3d3d"/>
        </g>
      </g>
    </g>
    <g>
      <circle cx="74.4" cy="19.4" r="4.6" style="fill: #0f0d0e"/>
      <circle cx="74.4" cy="19.4" r="3.3" style="fill: #9c74e1"/>
    </g>
  </g>
</svg>
