<svg xmlns="http://www.w3.org/2000/svg" viewBox="0 0 151.9 1200.5"><title>overlay-rotated</title><path d="M21.3,238.8c-2.6-25.4,1.6-51.4,13.6-73.1a127.5,127.5,0,0,1,48.3-48.9c4.2-2.4,4.1-4.2,1.6-7.9A78.2,78.2,0,0,1,72.1,55.5C74.8,34.3,89.8,6,110.6-2.2c13.4,0,26.9.1,40.3,0,2.5-.1,3.4.4,2.9,2.9a17.6,17.6,0,0,0,0,2.3q0,597.3.1,1194.5c0,4.3-.9,5.4-5.2,5.3-12.3-.4-24.7-.2-37-.2-4.4-2-7.6-5.5-10.4-9.4-20.7-27.9-26.3-58.3-15.2-91.5,2.7-8.1,2.7-8.1-4.5-12.5-47.9-29.5-60.1-94.7-25.9-139.8,3.1-4.1,2.8-6.1-.9-9.2C12.2,903.8,6,827.1,48.7,788.1c4.5-4.1,5.4-8,3.6-14-16.5-54.6-8-125.6,36.9-164.7,2.9-2.6,3.1-4.3.7-7.5-27.1-36.3-31.6-93.6-2.3-130.5,2.4-3,2.5-4.6-1-7-46.7-31.9-63.5-93.9-35-143.6,2.5-4.4,1.9-7.1-1.3-10.9C34.1,290.5,24.1,265,21.3,238.8Z"/><path d="M21.5-2.2h-.7v.5c0,26.4,14.4,51.9,34.1,68.7,3.6,3.1,4,5.1.9,9.2-34.2,45-22,110.2,25.9,139.7,7.2,4.4,7.2,4.4,4.5,12.5-11.1,33.2-5.5,63.6,15.2,91.5,2.7,3.7,5.8,7.1,10,9.2l-.7.4c-39.1,21.3-50.5,74.7-25.8,111.1,2.4,3.6,2.6,5.4-1.6,7.8-50.6,29-73.1,94.9-56.6,150a122.5,122.5,0,0,0,23.7,43c3.2,3.9,3.8,6.6,1.3,11C23,702.5,40.2,764.1,86.6,795.8c3.6,2.4,3.5,4.1,1.1,7.1-30.1,37.8-25.6,93,2.3,130.5,2.4,3.1,2.2,4.8-.7,7.4-45.5,39.4-53.6,109.7-36.9,164.6,2.5,8.6-5.2,17.1-10.3,23a87.8,87.8,0,0,0-15.5,24.5c-6.1,14-7.9,34.6-5.8,49.9H153.9V-2.2Z"/></svg>