<svg xmlns="http://www.w3.org/2000/svg" xmlns:xlink="http://www.w3.org/1999/xlink" viewBox="0 0 230 491.1">
    <defs>
        <linearGradient id="a" x1="3.86" x2="226.14" y1="245.57" y2="245.57" data-name="Dégradé sans nom 29" gradientUnits="userSpaceOnUse">
            <stop offset="0.8" stop-color="#fff" stop-opacity="0"/>
            <stop offset="0.9" stop-color="#fff"/>
            <stop offset="1" stop-color="#fff" stop-opacity="0"/>
        </linearGradient>
        <linearGradient id="b" x1="3.86" x2="226.14" y1="245.57" y2="245.57" data-name="Dégradé sans nom 30" gradientUnits="userSpaceOnUse">
            <stop offset="0" stop-color="#fff" stop-opacity="0"/>
            <stop offset="0.1" stop-color="#fff"/>
            <stop offset="0.2" stop-color="#fff" stop-opacity="0"/>
        </linearGradient>
    </defs>
    <title>
        samsungS8
    </title>
    <g>
        <path d="M9.1,428.1v16.6a24,24,0,0,0,24,24H195.8a23.9,23.9,0,0,0,24-24V428.1Z" style="fill: #414042;opacity: 0.05"/>
        <rect width="222.3" height="487.27" x="3.9" y="1.9" rx="35" ry="35" style="fill: #b496e9;opacity: 0.5;"/>
        <path d="M3,172.4h.9a0,0,0,0,1,0,0v31.8a0,0,0,0,1,0,0H3a3,3,0,0,1-3-3V175.4A3,3,0,0,1,3,172.4Z" style="fill: #4c2989"/>
        <path d="M226.1,145.8h.9a3,3,0,0,1,3,3v29a3,3,0,0,1-3,3h-.9a0,0,0,0,1,0,0v-35A0,0,0,0,1,226.1,145.8Z" style="fill: #4c2989"/>
        <path d="M3,82.1h.9a0,0,0,0,1,0,0v65.3a0,0,0,0,1,0,0H3a3,3,0,0,1-3-3V85.1A3,3,0,0,1,3,82.1Z" style="fill: #4c2989"/>
        <rect width="210.7" height="441.13" x="9.6" y="27.6" rx="24" ry="24" style="fill: #414042;opacity: 0.05"/>
        <g>
            <circle cx="61.1" cy="17.9" r="4.2" style="fill: #414042"/>
            <circle cx="47.8" cy="17.9" r="3" style="fill: #414042"/>
            <circle cx="77.3" cy="17.9" r="1.8" style="fill: #414042;opacity: 0.30000000000000004"/>
            <circle cx="84.7" cy="17.9" r="1.8" style="fill: #414042;opacity: 0.30000000000000004"/>
            <circle cx="165.3" cy="17.9" r="4.2" style="fill: #414042"/>
            <circle cx="182.2" cy="17.9" r="3" style="fill: #414042"/>
            <rect width="30.9" height="4.24" x="103.4" y="15.8" rx="2.1" ry="2.1" style="fill: #414042"/>
        </g>
<!--<rect width="222.3" height="487.27" x="3.9" y="1.9" rx="35" ry="35" style="opacity: 0.1000000000000001;fill: url(#a)"/> <rect width="222.3" height="487.27" x="3.9" y="1.9" rx="35" ry="35" style="opacity: 0.1000000000000001;fill: url(#b)"/>-->
        <path d="M192.2,491.1H37.8A35.9,35.9,0,0,1,1.9,455.2V35.9A35.9,35.9,0,0,1,37.8,0H192.2a35.9,35.9,0,0,1,35.9,35.9V455.2A35.9,35.9,0,0,1,192.2,491.1ZM37.8,3.9a32,32,0,0,0-32,32V455.2a32.1,32.1,0,0,0,32,32.1H192.2a32.1,32.1,0,0,0,32-32.1V35.9a32,32,0,0,0-32-32Z" style="fill: #4c2989"/>
        <path d="M227.7,39h-1.6a31,31,0,0,0-31-31H34.9a31,31,0,0,0-31,31H2.3A32.6,32.6,0,0,1,34.9,6.5H195.1A32.6,32.6,0,0,1,227.7,39Z" style="fill: #4c2989"/>
        <g>
            <path d="M105.7,439.2h18.6v18.5H105.7Z" style="fill: none"/>
            <g>
                <path d="M119.6,453h-7.7v1.6h7.7a1.6,1.6,0,0,0,1.6-1.6v-7.7h-1.6Z" style="fill: #414042"/>
                <path d="M121.2,443.8a1.6,1.6,0,0,0-1.6-1.6h-9.2a1.6,1.6,0,0,0-1.6,1.6V453a1.6,1.6,0,0,0,1.6,1.6V443.8Z" style="fill: #414042"/>
            </g>
        </g>
        <g>
            <path d="M167.5,439.2H186v18.5H167.5Z" style="fill: none"/>
            <g>
                <path d="M172.9,450.7l3.3,3.3a.8.8,0,0,0,1.1,0h0a.7.7,0,0,0,0-1l-2.2-2.3Z" style="fill: #414042"/>
                <path d="M173.5,447.6l3.8-3.7a.8.8,0,0,0,0-1.1h0a.8.8,0,0,0-1.1,0l-5.1,5.1a.8.8,0,0,0,0,1.1h0l.6.2h10.4a.8.8,0,0,0,.8-.8h0a.8.8,0,0,0-.8-.8Z" style="fill: #414042"/>
            </g>
        </g>
        <g>
            <path d="M44,439.2H62.5v18.5H44Z" style="fill: none"/>
            <g>
                <path d="M58.7,442.5a.7.7,0,0,0-.8.7v2.9H47.8a.7.7,0,0,0-.7.8v.7H58.7a.7.7,0,0,0,.7-.7v-3.7A.7.7,0,0,0,58.7,442.5Z" style="fill: #414042"/>
                <path d="M47.8,449.2a.7.7,0,0,0-.7.8v3.6a.8.8,0,0,0,.7.8.8.8,0,0,0,.8-.8v-2.9H58.7a.7.7,0,0,0,.7-.7v-.8Z" style="fill: #414042"/>
            </g>
        </g>
    </g>
</svg>
