<svg xmlns="http://www.w3.org/2000/svg" viewBox="0 0 394.3 393.1"><title>silhouette</title><path d="M215.5,50.5s-0.5,1.6-1.1,4.4-0.7,3.1-.9,5l-0.2,1.5v3.3c0,0.6,0,1.1.1,1.7a11.7,11.7,0,0,0,.3,1.7l0.2,0.8,0.3,0.8,0.4,0.8,0.5,0.9,1,1.8a27.2,27.2,0,0,1,3.2,8.7,50.5,50.5,0,0,1,.8,9.7c0,1.6,0,3.3-.1,5v4.9c-0.1.8,0,1.6,0.1,2.4s0,1.5.2,2.3l0.3,2.4c0.1,0.8.3,1.6,0.4,2.3s0.6,3.1.9,4.6,0.7,3,1.1,4.5,1.7,5.7,2.6,8.3,1.9,5.1,2.9,7.3l0.7,1.6,0.4,0.8,0.2,0.4h0v0.2a4.9,4.9,0,0,0,2.1,1.7c1.7,0.9,3.4,1.5,4.7,2a24.1,24.1,0,0,1,3,1.5l1,0.6h0a0.1,0.1,0,0,1,0,.1h-0.1l-1-.5-3.1-1.2c-1.4-.5-3-1-4.9-1.8a5.9,5.9,0,0,1-2.6-1.9c-0.6-1-1.1-2-1.6-3.2s-2.1-4.7-3.2-7.3-2.1-5.4-2.9-8.4a78.9,78.9,0,0,1-2.2-9.2,55.6,55.6,0,0,1-1-9.8c0-3.3.4-6.6,0.4-9.8a52.4,52.4,0,0,0-.6-9.4,27.5,27.5,0,0,0-2.8-8.3c-0.6-1.3-1.3-2.5-1.8-3.7l-0.4-.9-0.2-1a13.1,13.1,0,0,1-.2-1.9,27.7,27.7,0,0,1,.6-6.7c0.4-2,.9-3.7,1.3-5s1.5-4.3,1.5-4.3h0.2Z" fill="#9e9e9e"/><path d="M240,129.3l0.2,1.3c0.1,0.8.3,2.1,0.6,3.5s0.5,3.1.8,5,0.4,3.8.5,5.8a35,35,0,0,1-.2,5.8,16.3,16.3,0,0,1-1.4,4.9,7.9,7.9,0,0,1-1.1,1.7l-0.6.6-0.5.5-0.8.6-0.3.2,0.3-.2,0.7-.7,0.5-.5,0.5-.7,0.5-.8,0.4-.9c1.1-2.7,1.3-6.6,1.1-10.5-0.1-1.9-.2-3.9-0.4-5.7l-0.4-5c-0.1-1.5-.2-2.7-0.2-3.6S240,129.3,240,129.3Z" fill="#9e9e9e"/><path d="M305.8,121v0.4l-0.2,1.2c-0.2,1-.4,2.4-0.6,4.1s-0.1,1.8-.2,2.7,0,1,0,1.5,0,1,0,1.5v1.6c0,0.5.1,1.1,0.2,1.6s0.1,1.1.2,1.6l0.3,1.6,0.2,0.8,0.2,0.8,0.5,1.6c0.3,1,.8,2,1.1,3l1.3,2.7,0.3,0.6,0.4,0.6,0.7,1.1c0.5,0.7.8,1.5,1.2,2l1,1.5,0.9,1.4-1.3-1-1.5-1.2a13.5,13.5,0,0,1-1.7-1.7,17.7,17.7,0,0,1-1.9-2.2c-0.6-.9-1.2-1.7-1.8-2.7l-0.8-1.6a12.6,12.6,0,0,1-.7-1.6l-0.6-1.7-0.3-.9-0.2-.9-0.4-1.8c-0.1-.6-0.1-1.2-0.2-1.8a22.5,22.5,0,0,1,0-3.5,26.7,26.7,0,0,1,.4-3.3,21.4,21.4,0,0,1,.7-2.8,19.7,19.7,0,0,1,.9-2.3l0.9-1.7A10.2,10.2,0,0,1,305.8,121Z" fill="#9e9e9e"/><path d="M308.3,145.3h1.4a10.9,10.9,0,0,1,3.9.6,9.7,9.7,0,0,1,2.6,1.3,6.1,6.1,0,0,1,2.3,2.7,4.9,4.9,0,0,1-.4,4.1,11.2,11.2,0,0,1-2.9,3.3l-1.8,1.3-1,.6-1.1.6a27.1,27.1,0,0,1-4.6,1.7,64.1,64.1,0,0,1-10.2,1.8l-10.9.9-11.3.8-5.7.3H263l-11-.2-5.2-.3-5-.6a46.6,46.6,0,0,1-4.8-.9,42.9,42.9,0,0,1-4.3-1.4,10.7,10.7,0,0,1-3.8-2.3,3,3,0,0,1-.9-2.3,3.2,3.2,0,0,1,1-2,9.1,9.1,0,0,1,2.9-1.8l2.7-.8a16.8,16.8,0,0,1,3.9-.4h0a16.7,16.7,0,0,0-3.7.8l-2.5,1a8,8,0,0,0-2.4,1.7,1.9,1.9,0,0,0-.5,1.2,1.6,1.6,0,0,0,.6,1.1,9.5,9.5,0,0,0,3.3,1.7,41.3,41.3,0,0,0,4.2,1.1l4.6,0.7,10.1,0.9,10.9,0.5,5.6,0.2h5.7c3.8,0,7.6,0,11.3-.3a93,93,0,0,0,10.8-1.4,85.1,85.1,0,0,0,9.8-2.4,32.2,32.2,0,0,0,4.3-1.6l0.9-.5,0.9-.6,1.7-1.2a9.9,9.9,0,0,0,2.6-2.7,3.5,3.5,0,0,0,.5-2.9,5.2,5.2,0,0,0-1.7-2.3,10.2,10.2,0,0,0-2.2-1.4,10.6,10.6,0,0,0-3.6-1h-1.4Z" fill="#9e9e9e"/><path d="M312.9,145a17.8,17.8,0,0,1,3.6,1.2,15.5,15.5,0,0,1,3.4,2,8.3,8.3,0,0,1,2.7,3.6,6.4,6.4,0,0,1,.3,2.3,7.7,7.7,0,0,1-.5,2.2,10.6,10.6,0,0,1-.9,1.9l-1.1,1.5-1,1.2-0.9.8-0.8.7,0.7-.8,0.8-.9,0.9-1.2,1-1.5a13.2,13.2,0,0,0,.8-1.8,7.2,7.2,0,0,0,.4-2.1,5.9,5.9,0,0,0-.3-2.1,7.8,7.8,0,0,0-2.5-3.4,16.9,16.9,0,0,0-3.2-2.1l-2.5-1.1Z" fill="#9e9e9e"/><path d="M215.2,49.9a16.3,16.3,0,0,1-.7-1.6,24.4,24.4,0,0,1-1.3-4.8,20.6,20.6,0,0,1,.2-7.8,19,19,0,0,1,1.7-4.5c0.7-1.5,1.5-3.1,2.4-4.7a49.7,49.7,0,0,1,6.9-9.7c1.4-1.6,2.9-3.1,4.5-4.7A61,61,0,0,1,234,7.6a35.7,35.7,0,0,1,6-3.8,22.4,22.4,0,0,1,3.4-1.4l1.9-.4,1.8-.2c4.8-.5,9.7-1,14.6-1.3S271.5,0,276.4,0a134.9,134.9,0,0,1,14.2.7,55.9,55.9,0,0,1,6.7,1.1A25.4,25.4,0,0,1,303.5,4l5.3,3.2,4.9,2.9c3.1,1.9,5.9,4.1,7.5,6.8a17.2,17.2,0,0,1,2.5,7.4,31.4,31.4,0,0,1,.1,5v0a35.9,35.9,0,0,0-.4-4.9,16.7,16.7,0,0,0-2.7-7c-1.7-2.4-4.4-4.4-7.5-6.2l-5-2.8-5.3-3a24,24,0,0,0-5.9-1.9,66.2,66.2,0,0,0-6.6-1,133.1,133.1,0,0,0-14-.5c-4.8,0-9.6.3-14.5,0.6s-9.7.7-14.5,1.2l-1.8.2-1.6.3a20.6,20.6,0,0,0-3.2,1.2,34,34,0,0,0-5.7,3.6c-1.8,1.3-3.4,2.9-5,4.4s-3.1,3-4.6,4.5a48.4,48.4,0,0,0-7,9.3c-0.9,1.6-1.7,3.1-2.5,4.6a18.1,18.1,0,0,0-1.8,4.3,20.1,20.1,0,0,0-.5,7.5,26.8,26.8,0,0,0,1,4.8A16.3,16.3,0,0,0,215.2,49.9Z" fill="#9e9e9e"/><path d="M323.8,31.7l0.3,0.5,0.9,1.6c0.4,0.7.8,1.5,1.2,2.6s0.9,2.2,1.3,3.4,0.8,2.7,1.2,4.2,0.3,1.5.5,2.3a22.9,22.9,0,0,1,.4,2.5,43.6,43.6,0,0,1,.4,5.2c0,0.9.1,1.8,0,2.7l-0.2,2.7v1.4l-0.2,1.3L329,64.7a18.6,18.6,0,0,1-.6,2.6l-0.7,2.5c-0.4,1.6-1.1,3.1-1.6,4.6a29.9,29.9,0,0,1-1.8,3.9,28,28,0,0,1-1.8,3.2l-1.6,2.3-1.4,2,0.9-2.3,1.1-2.6,0.3-.8,0.3-.8,0.6-1.8c0.4-1.2,1-2.5,1.3-4l0.6-2.2c0.2-.8.5-1.5,0.6-2.3s0.7-3.2.9-4.9l0.3-2.5,0.2-1.3V59.1l0.2-2.6c0.1-.9,0-1.7,0-2.6s0.1-1.7,0-2.5V49.1c0-.8-0.1-1.6-0.2-2.4s-0.1-1.5-.2-2.3-0.4-2.9-.6-4.2-1-4.7-1.3-6.2L324,32.3Z" fill="#9e9e9e"/><path d="M218.6,49.2a44.6,44.6,0,0,0-.3,5.7c0,1,0,1.9.1,2.9s0.2,1.9.3,2.8,0.3,1.9.5,2.8l0.4,1.4,0.5,1.3a11.5,11.5,0,0,0,.5,1.3,10.9,10.9,0,0,0,.6,1.3l0.7,1.2,0.7,1.3a6.7,6.7,0,0,1,.5,3c0,1,0,1.9,0,2.9a56.5,56.5,0,0,0,.4,5.7c0.1,0.9.2,1.9,0.4,2.8s0.3,1.9.4,2.8,0.6,3.8,1,5.7V94l4.2,2.4-0.3.2c-0.2-2-.4-3.9-0.6-5.9s-0.3-3.9-.4-5.9-0.2-3.9-.2-5.9,0-3.9.2-5.9,0.2-2,.4-2.9l0.3-1.5a6.4,6.4,0,0,1,.5-1.4,6.6,6.6,0,0,1,5-3.4,9.8,9.8,0,0,1,3.1.1,11.6,11.6,0,0,1,2.9,1,13.3,13.3,0,0,1,4.6,4,21.6,21.6,0,0,1,2.8,5.3,28.7,28.7,0,0,1,1.5,5.8c0.2,1,.2,2,0.3,3s0.1,2,.1,3a35.6,35.6,0,0,1-.6,5.9,25,25,0,0,1-1.8,5.7,14.4,14.4,0,0,1-3.5,4.9,7,7,0,0,1-2.6,1.5,5.6,5.6,0,0,1-3-.1,6.9,6.9,0,0,1-2.6-1.5,8,8,0,0,1-1.7-2.4h0.1a7.8,7.8,0,0,0,1.8,2.3,6.6,6.6,0,0,0,2.5,1.3,5.5,5.5,0,0,0,2.8,0,6.5,6.5,0,0,0,2.4-1.5,14.2,14.2,0,0,0,3.1-4.8,24.2,24.2,0,0,0,1.6-5.5,35.8,35.8,0,0,0,.5-5.8c0-1,0-1.9-.1-2.9s-0.1-2-.3-2.9a27.7,27.7,0,0,0-1.5-5.6,22.5,22.5,0,0,0-2.7-5.1,12.3,12.3,0,0,0-4.2-3.7,10.7,10.7,0,0,0-2.6-1,9.2,9.2,0,0,0-2.8-.1,6.8,6.8,0,0,0-2.6.9,5.1,5.1,0,0,0-1.9,1.9,6,6,0,0,0-.5,1.3L229,70.3c-0.2.9-.4,1.9-0.5,2.9s-0.3,3.9-.4,5.8,0,3.9.1,5.9c0.2,3.9.5,7.8,1.1,11.7a0.2,0.2,0,0,1-.2.2H229l-4.2-2.3V94.3h0c-0.4-1.9-.8-3.8-1.2-5.7s-0.7-3.8-.9-5.7-0.2-1.9-.3-2.9-0.1-1.9-.1-2.9,0-1.9,0-2.9a5.9,5.9,0,0,0-.4-2.7l-0.6-1.2-0.7-1.3a11.6,11.6,0,0,1-.6-1.3,12.1,12.1,0,0,1-.5-1.4L218.9,65l-0.3-1.4c-0.2-1-.4-1.9-0.5-2.9s-0.2-1.9-.2-2.9,0-1.9,0-2.9a39,39,0,0,1,.6-5.7h0.1Z" fill="#9e9e9e"/><path d="M234.1,78V77.4c0-.2,0-0.5,0-0.8v-1a5.9,5.9,0,0,1,1.2-2.5,4.1,4.1,0,0,1,3.3-1.5,5.1,5.1,0,0,1,3.9,2l0.2,0.2h0.2l0.3,0.5,0.5,1.1a21.6,21.6,0,0,1,.7,2.3,39.5,39.5,0,0,1,1.2,10.2,24.6,24.6,0,0,1-.7,5.2,9.8,9.8,0,0,1-.4,1.3,10.8,10.8,0,0,1-.5,1.2,5.7,5.7,0,0,1-1.6,2.2,2.6,2.6,0,0,1-1.3.5,2.7,2.7,0,0,1-1.4-.3,6,6,0,0,1-1.9-1.6,5.6,5.6,0,0,1-1.1-2,11.2,11.2,0,0,0-.6-1.9,3.7,3.7,0,0,0-1-1.4A1.9,1.9,0,0,0,234,91a2.7,2.7,0,0,0-2.3,1,4.8,4.8,0,0,0-.6,1.6v0a4.5,4.5,0,0,1,.5-1.7,2.1,2.1,0,0,1,1-.9,4.6,4.6,0,0,1,1.5-.4,2.4,2.4,0,0,1,1.7.4,4.1,4.1,0,0,1,1.2,1.6,11.7,11.7,0,0,1,.7,2,4.9,4.9,0,0,0,1,1.8,5.2,5.2,0,0,0,1.6,1.3l0.9,0.2a1.7,1.7,0,0,0,.9-0.4l0.7-.8,0.6-1a9.7,9.7,0,0,0,.4-1.1,9,9,0,0,0,.3-1.2,23.9,23.9,0,0,0,.6-5,38.6,38.6,0,0,0-1.1-10c-0.2-.8-0.4-1.5-0.7-2.3l-0.4-1-0.3-.5h-0.1L242,74a4.2,4.2,0,0,0-1.5-1.3,4.3,4.3,0,0,0-1.8-.5,3.8,3.8,0,0,0-3,1.2,5.7,5.7,0,0,0-1.2,2.3l-0.2,1c0,0.3-.1.5-0.1,0.7V78Z" fill="#9e9e9e"/><path d="M230.7,74v0.7a3.8,3.8,0,0,0-.1.8v1c0.1,0.3.1,0.7,0.2,1.1a8.4,8.4,0,0,0,.4,1.2l0.3,0.6,0.3,0.6,0.4,0.5,0.4,0.5,0.5,0.5,0.5,0.4a3.9,3.9,0,0,0,1.2.5h1.7L237,82a3.2,3.2,0,0,0,.8-0.5l0.5-.6,0.4-.5-0.3.6a2.6,2.6,0,0,1-.4.7,2.8,2.8,0,0,1-.7.8l-0.5.4-0.6.2h-1.5l-0.8-.2-0.7-.3-0.7-.4-0.6-.5-0.5-.6-0.4-.6-0.4-.7-0.3-.7a6.6,6.6,0,0,1-.3-1.4,11.2,11.2,0,0,1,0-1.2c0-.4.1-0.7,0.2-1a3.9,3.9,0,0,1,.2-0.7Z" fill="#9e9e9e"/><path d="M323.9,81.4a6.5,6.5,0,0,1,.1,1.9,12.4,12.4,0,0,1-1.3,4.8A20.3,20.3,0,0,1,321,91l-2,3.1c-1.3,2.2-2.7,4.5-3.9,7l-1.8,3.7-1.6,3.6a65.6,65.6,0,0,1-3.5,6.1c-1.1,1.7-2.1,3.1-2.8,4.1l-1.1,1.5,0.9-1.6,2.5-4.3c1-1.8,2.1-3.9,3.2-6.2s1-2.4,1.5-3.6l1.8-3.7a75.6,75.6,0,0,1,4-7l2.1-3a19.6,19.6,0,0,0,1.8-2.7,13.1,13.1,0,0,0,1.6-4.6A7.4,7.4,0,0,0,323.9,81.4Z" fill="#9e9e9e"/><path d="M308.9,135.8a18,18,0,0,1,3.9-3.9,14.8,14.8,0,0,1,5-2.4l1.4-.3,1.4-.2,2.7-.4,5.5-.8h0a19.3,19.3,0,0,1,3.5-.6,17.1,17.1,0,0,1,3.5.1,11.6,11.6,0,0,1,3.4,1l3.1,1.7,3,1.7,3,1.9,1.4,1,1.4,1.1,2.6,2.3,2.5,2.5,2.3,2.7c0.8,0.9,1.4,1.9,2.1,2.8l2,3a18.5,18.5,0,0,1,1.3,3.4,23.9,23.9,0,0,1,.7,3.5,11.8,11.8,0,0,0,.7,3.3,6.9,6.9,0,0,0,.8,1.4,4.4,4.4,0,0,0,1,1.1h0.1a9.7,9.7,0,0,1,1.3,2.7,16.7,16.7,0,0,1,.7,2.8,21.4,21.4,0,0,1,.3,2.8c0,0.9,0,1.9,0,2.8s-0.2,3.7-.4,5.6l-0.3,2.8c-0.1.9-.2,1.9-0.3,2.7a40.3,40.3,0,0,0-.1,5.5c0.1,0.9.1,1.8,0.2,2.7a24.7,24.7,0,0,0,.5,2.7l0.4,1.3,0.4,1.3,1,2.6,1,2.6,0.4,1.4,0.2,0.7v0.6h0a1.1,1.1,0,0,1,0,.2h0a5.3,5.3,0,0,1,0,.9,6.7,6.7,0,0,1-.1.8,6.1,6.1,0,0,1-.6,1.6,5.6,5.6,0,0,1-2.5,2.3,8.8,8.8,0,0,1-3.2.8,16.4,16.4,0,0,1-3.1-.1l0.4-1.6,3.3,0.9,1.6,0.3h0.4a1.4,1.4,0,0,1,.9.3,1.2,1.2,0,0,1,.4.7,1.5,1.5,0,0,1,0,.5,2.6,2.6,0,0,1-.2.6,9.2,9.2,0,0,1-1.1,1.6l-1.2,1.4-2.5,2.5V219l-0.2.4v0.5a4,4,0,0,0-.1,1.1v0.8c0,0.1,0,.2,0,0.3a2.8,2.8,0,0,1-.1.5,5.6,5.6,0,0,1-.5,1.5,15.8,15.8,0,0,1-1.5,2.4l-1.7,2.1h0.1l-1.4,2.2-1.3,2.3-1.3,2.3-0.3.5-0.3.6-0.6,1.2a0.9,0.9,0,0,1-1.2.4l-0.3-.2h0l-3.2-3.3-3.5-3.1-1.9-1.4-1.9-1.3-2-1.1-1.1-.5-1.1-.6a37.4,37.4,0,0,1-7.6-6l-3.3-3.5-3.1-3.7,0.2,0.2c-2.9-2-5.7-4.1-8.5-6.3l-4-3.4-1.9-1.8-0.9-1-0.9-1,0.3,0.2c-4.4-2.5-8.7-5-13-7.7l-6.3-4.2-3.1-2.3a28.5,28.5,0,0,1-2.9-2.6h0.1l-0.6-.4-0.7-.4-1.4-.7a19,19,0,0,0-3.1-1l-1.6-.3-1.6-.2h-3.8l-1.7-.8-1.8-.7-3.8-1.1a38,38,0,0,0-7.7-1,35.6,35.6,0,0,0-7.8.7l-1.9.4-1.9.5-1.8.6-1.8.7h0.2l-9.2,6.4-4.6,3.2-2.3,1.6-2.5,1.4a73.1,73.1,0,0,0-9.7,5.4,22,22,0,0,0-7.3,7.7l-0.3.4h0l-1,.6-1,.7-1.9,1.6-1.8,1.7-1.7,1.8-1.5,1.9c-0.4.7-.9,1.4-1.3,2.1a22.9,22.9,0,0,0-1.1,2.2c-0.4.7-.6,1.5-0.9,2.3h0l-0.3.3c-2.9,1.9-5.7,4-8.4,6.2a103.8,103.8,0,0,0-7.8,6.9,44,44,0,0,0-6.6,8,19.8,19.8,0,0,0-1.2,2.3l-0.9,2.4a46.1,46.1,0,0,1-2.3,4.8c-1.7,3.1-3.6,6.1-5.6,9s-4.1,5.7-6.2,8.5l-3.3,4.1c-1.1,1.4-2.3,2.7-3.5,4l-7,7.9v-0.2a11.3,11.3,0,0,1-.5,2.4,8.7,8.7,0,0,1-1.1,2.2A5.4,5.4,0,0,1,137,291a5.1,5.1,0,0,1-2.4.6h0.1a11.7,11.7,0,0,1-2.6,1.7l-2.9,1.1a23.2,23.2,0,0,1-6.1.9,32.1,32.1,0,0,1-6.2-.6l-3-.7-3-.9,3,0.8,3,0.6a32,32,0,0,0,6.1.5,22.9,22.9,0,0,0,6.1-.9l2.8-1.1a11.5,11.5,0,0,0,2.5-1.7h0.1a4.7,4.7,0,0,0,2.2-.6,5,5,0,0,0,1.6-1.6,8.2,8.2,0,0,0,1-2.1,10.9,10.9,0,0,0,.5-2.3v-0.2l6.9-8c1.1-1.3,2.3-2.6,3.4-4l3.2-4.2q3.2-4.2,6.1-8.5c1.9-2.9,3.8-5.9,5.5-8.9a45.1,45.1,0,0,0,2.2-4.7l0.9-2.5a20.9,20.9,0,0,1,1.2-2.4,45.2,45.2,0,0,1,6.7-8.3,105.1,105.1,0,0,1,7.9-7.1c2.7-2.2,5.5-4.3,8.4-6.4l-0.3.4c0.3-.8.6-1.6,1-2.4a24.4,24.4,0,0,1,1.2-2.3c0.4-.8.9-1.5,1.4-2.2l1.6-2.1,1.7-1.9,1.9-1.8,2-1.7,1.1-.8,1.1-.7-0.3.4a19,19,0,0,1,3.4-4.7,30.2,30.2,0,0,1,4.4-3.7,74.6,74.6,0,0,1,9.9-5.5l2.3-1.3,2.3-1.6,4.6-3.2,9.1-6.4h0.2l1.9-.8,1.9-.7,2-.6,2-.5a37.4,37.4,0,0,1,8.2-.7,39.9,39.9,0,0,1,8.1,1l3.9,1.1,1.9,0.7,1.9,0.9h3l1.8,0.2,1.8,0.3a20.9,20.9,0,0,1,3.4,1.1l1.6,0.8,0.8,0.5,0.8,0.6H286a41.1,41.1,0,0,0,5.7,4.6l6.2,4.1c4.2,2.7,8.5,5.2,12.9,7.7l0.3,0.2h0l0.8,1,0.9,0.9,1.9,1.8,3.9,3.4c2.7,2.2,5.5,4.2,8.3,6.2l0.2,0.2,3,3.6,3.2,3.4a35.7,35.7,0,0,0,7.2,5.8l1,0.5,1.1,0.5,2.2,1.2,2,1.4,1.9,1.5,3.6,3.2c1.2,1.1,2.3,2.3,3.4,3.5l-1.5.2,0.6-1.2,0.3-.6,0.3-.6,1.3-2.3,1.4-2.3,1.4-2.3h0.1l1.6-2a14.1,14.1,0,0,0,1.3-2.1,4,4,0,0,0,.4-1v-0.2h0v-0.9a5.7,5.7,0,0,1,.1-1.5l0.2-.8,0.4-.8h0.1l2.4-2.4,1.1-1.3a7.8,7.8,0,0,0,.9-1.3v-0.2h0l0.2,0.3c0.2,0.2.3,0.1,0.1,0.1h-0.5l-1.8-.3-3.5-1a0.8,0.8,0,0,1,.4-1.6h0a10,10,0,0,0,5.4-.5,4.1,4.1,0,0,0,1.8-1.6,4.6,4.6,0,0,0,.5-1.2v-0.6a4.1,4.1,0,0,0,0-.6h0v-0.3l-0.2-.6-0.4-1.3-1-2.6-1-2.6-0.5-1.4-0.4-1.4a26.1,26.1,0,0,1-.5-2.8c-0.1-.9-0.2-1.9-0.2-2.8a41.6,41.6,0,0,1,.2-5.7c0.1-1,.3-1.8.4-2.8l0.3-2.8c0.2-1.8.3-3.7,0.4-5.5s0.1-1.8,0-2.7a20.2,20.2,0,0,0-.2-2.7,15.6,15.6,0,0,0-.6-2.6,8.9,8.9,0,0,0-1.1-2.3h0.1a6.6,6.6,0,0,1-2.2-3.1,12.9,12.9,0,0,1-.8-3.6,22.9,22.9,0,0,0-.6-3.4,17.5,17.5,0,0,0-1.1-3.2l-1.9-2.9c-0.7-.9-1.3-1.9-2-2.8l-2.2-2.7-2.4-2.5-2.6-2.3-1.3-1.1-1.4-1-2.9-1.9-3-1.8-3-1.8a11.1,11.1,0,0,0-3.3-1,18.3,18.3,0,0,0-6.9.3h0l-5.5.7-2.7.4-1.4.2-1.3.3a14.6,14.6,0,0,0-4.9,2.3A17.9,17.9,0,0,0,308.9,135.8Z" fill="#9e9e9e"/><path d="M310.2,198.3l0.5,0.2,1.6,0.3a7,7,0,0,0,2.6-.3A10.1,10.1,0,0,0,318,197l7.5-5.1,8.6-5.7,4.4-2.9,4.2-2.8a36.6,36.6,0,0,0,6.6-6.1l1.2-1.5,0.9-1.4,0.7-1.3,0.5-1.2a9.8,9.8,0,0,0,.5-1.7l0.2-.6v0.6a9.8,9.8,0,0,1-.5,1.7,7.9,7.9,0,0,1-.5,1.2,12.5,12.5,0,0,1-.7,1.3l-0.9,1.4-1.1,1.5a36.8,36.8,0,0,1-6.6,6.2l-4.2,2.9-4.3,3-8.5,5.9-7.3,5.2a10.9,10.9,0,0,1-3.3,1.8,8,8,0,0,1-2.9.4,7.1,7.1,0,0,1-1.9-.4l-0.7-.3A0.5,0.5,0,0,1,310.2,198.3Z" fill="#9e9e9e"/><path d="M327,210.9h0.5l1.4-.5a25.1,25.1,0,0,0,4.1-2l2-1.4,1.7-1.4,1.1-1,0.4-.4-0.3.5-0.9,1.3-1.4,1.7-1.8,1.9a27.2,27.2,0,0,1-3.8,3.1l-1.4.9-0.5.2H328a1.5,1.5,0,0,1-1.3-2.7H327Z" fill="#9e9e9e"/><path d="M341.8,224.8h0.5l1.3-.2,1.7-.5,2.1-.9a16.9,16.9,0,0,1,4.1-1.1h1.9l-1.8.4a16.2,16.2,0,0,0-3.7,1.7l-1.9,1.2-1.9.9-1.4.4h-0.6a1,1,0,0,1-.5-2h0.2Z" fill="#9e9e9e"/><path d="M228.7,154.7l-2.8,1.4-2.9,1.2-3,1.1-3,.9-3.1.8-3.1.6-3.1.4-3.2.3h-9.4l-3.1.2-3.1.3-1.5.3-1.5.3-2.9.9a12.7,12.7,0,0,0-2.6,1.3h-0.1l-0.7.3-0.7.2-1.3.4-2.7.4h-2.7l-2.7-.2h0.3l-3,1.1-2.9,1.2c-1.9.9-3.8,1.8-5.7,2.8l-1.4.8-1.4.8-2.7,1.7-2.6,1.8-2.5,1.9h-0.3l-3.4,1.1-3.3,1.4-3.2,1.5-3.1,1.7-3,1.9-1.5,1-1.4,1.1a43,43,0,0,0-5.3,4.7l-1.2,1.3-1.1,1.4c-0.7.9-1.3,1.9-2,2.9s-1.1,2.1-1.6,3.1a27,27,0,0,1-1.7,3.3,16.9,16.9,0,0,1-2.3,3l-0.6.6-0.5.6-1,1.4a54.7,54.7,0,0,0-3.3,6.3v-0.2c-0.2,1.6-.4,3.3-0.6,4.9s-0.2,3.3-.3,5-0.1,3.3,0,5,0.2,3.3.3,5a41.1,41.1,0,0,0,1.8,9.7c0.3,0.8.6,1.5,0.9,2.3l0.5,1.1,0.6,1.1,1.3,2.1,1.4,2h0.1c0.6,1.2,1.4,2.4,2.1,3.6l2.4,3.4,2.7,3.3,1.4,1.6,1.5,1.5,1.5,1.5,1.6,1.4,1.6,1.4,1.7,1.3,1.7,1.3,1.7,1.2,3.6,2.2h-0.5l3.1-.8a19.7,19.7,0,0,0,3-1.3,12.4,12.4,0,0,0,2.6-1.8,10.5,10.5,0,0,0,1.1-1.1l0.4-.6,0.4-.7,0.3-.7c0.1-.2.1-0.5,0.2-0.7a12.2,12.2,0,0,0,.3-1.6l0.5-3.3c0.3-2.2.7-4.4,0.9-6.7,0.6-4.5,1.1-8.9,1.5-13.4,0.2-2.2.4-4.5,0.5-6.7s0.1-2.2.2-3.4,0-2.3,0-3.4a124.1,124.1,0,0,1-.1,13.5c-0.2,4.5-.5,9-0.9,13.5-0.2,2.2-.4,4.5-0.7,6.7s-0.3,2.3-.5,3.4a13.8,13.8,0,0,1-.3,1.7l-0.2.9-0.4.8-0.4.8-0.5.8a12,12,0,0,1-1.2,1.3,13.8,13.8,0,0,1-2.9,2.1,21.2,21.2,0,0,1-3.2,1.4,21.7,21.7,0,0,1-3.4.8h-0.5l-3.7-2.2-1.8-1.2-1.7-1.3-1.7-1.3-1.6-1.4-1.6-1.5-1.5-1.5-1.5-1.6-1.4-1.6-2.7-3.3-2.5-3.5c-0.8-1.2-1.5-2.4-2.2-3.7h0.1l-1.5-2.1-1.3-2.2-0.6-1.1-0.5-1.2c-0.3-.8-0.7-1.6-0.9-2.4a42.5,42.5,0,0,1-1.9-10c-0.1-1.7-.3-3.3-0.3-5s-0.1-3.4,0-5.1,0.2-3.4.3-5,0.3-3.3.6-5v-0.2a56.1,56.1,0,0,1,3.4-6.5l1.1-1.5,0.6-.8,0.6-.7a15.4,15.4,0,0,0,2.1-2.7,25.5,25.5,0,0,0,1.6-3.1c0.6-1.1,1.1-2.2,1.7-3.3s1.3-2.1,2.1-3.1l1.2-1.4,1.2-1.4a36.7,36.7,0,0,1,2.6-2.6c0.9-.8,1.8-1.6,2.8-2.3l1.5-1.1,1.5-1,3.1-1.9,3.2-1.7,3.3-1.5,3.4-1.4,3.5-1.2h-0.3l2.6-2,2.7-1.8,2.7-1.7,1.4-.8,1.4-.8c1.9-1,3.8-2,5.8-2.9l3-1.3,3.1-1.1h0.3l2.6,0.2h2.6l2.5-.3,1.2-.3,0.6-.2,0.5-.2h-0.1a13.6,13.6,0,0,1,3-1.5l3.1-.9,1.6-.3,1.6-.3,3.2-.4,3.2-.2h3.2l3.1,0.2h6.2l3.1-.3,3.1-.5,3.1-.6c2-.5,4-1.1,6-1.7l3-1.1Z" fill="#9e9e9e"/><path d="M214.4,158.1l-0.9-1.2-2.2-3.2-0.3-.5-0.3-.6a5.1,5.1,0,0,1-.4-1.5c-0.1-1-.2-1.8-0.3-2.8a26.2,26.2,0,0,0-1.4-5.9,20,20,0,0,0-1.2-2.8,16.6,16.6,0,0,0-1.6-2.5,18.6,18.6,0,0,0-1.8-2l-0.9-.8-1-.5a3.6,3.6,0,0,0-1.9-.2,1.1,1.1,0,0,0-1,.9,3.3,3.3,0,0,0-.1,1v0.4H199v-0.4a3.1,3.1,0,0,1,0-1.1,1.5,1.5,0,0,1,1.1-1.2,3.7,3.7,0,0,1,2.2.1l1.1,0.5,1.1,0.8a14.5,14.5,0,0,1,2,2.1,17.4,17.4,0,0,1,1.7,2.6,20.9,20.9,0,0,1,1.3,2.9,26.9,26.9,0,0,1,1.4,6.1c0.1,1,.2,2,0.2,2.9a4.7,4.7,0,0,0,.8,2.4l2.7,4.6h-0.1Z" fill="#9e9e9e"/><path d="M199.5,137.7h-0.1l-0.2-.4-0.8-1.3a9.1,9.1,0,0,0-1.4-1.5l-0.9-.7-0.5-.3-0.5-.2h-1.2l-1.1.4a1.1,1.1,0,0,0-.6.8,2,2,0,0,0,.2,1,8.2,8.2,0,0,0,.9,1.9,8.2,8.2,0,0,1-1.1-1.8,2.2,2.2,0,0,1-.3-1,1.4,1.4,0,0,1,.6-1.1,3.4,3.4,0,0,1,1.2-.5h1.3l0.7,0.2,0.6,0.3,1.1,0.7a9.8,9.8,0,0,1,1.6,1.6l0.9,1.3,0.2,0.4v0.2a0.5,0.5,0,1,1-.9.5h0Z" fill="#9e9e9e"/><path d="M192.1,134.5l-0.4-1.2a10.2,10.2,0,0,0-.7-1.5,10.8,10.8,0,0,0-1.4-1.9l-1-.9-1.1-.8-1.3-.7-1.3-.5-1.3-.3h0l1.3,0.2,1.4,0.4,1.3,0.6,1.3,0.8,1.1,0.9a11.6,11.6,0,0,1,1.7,2,11.1,11.1,0,0,1,.9,1.6l0.3,0.7Z" fill="#9e9e9e"/><path d="M185.6,134.7l-5.3-8.1h0.1l-2.9-2.3-2.9-2.3-1.5-1-0.8-.4-0.4-.2h-2.1l-0.8.2-0.7.4h-0.1a0.6,0.6,0,0,0-.4.5,2,2,0,0,0,.1.9l0.3,1,0.5,0.9h0l3.9,4.8,0.5,0.6H173v0.2l0.2,0.3,0.8,1.4a7.5,7.5,0,0,1,.6,1.5,5.6,5.6,0,0,1,.1.8,3.3,3.3,0,0,1,0,.9v-0.2a5.9,5.9,0,0,0,.5,1.5l0.4,0.7,0.2,0.3,0.2,0.3h0a15.5,15.5,0,0,1,1.6,3.2,7.3,7.3,0,0,1,.4,1.8v0.9c0,0.3,0,.5.1,0.8a10.7,10.7,0,0,0,.3,1.6l0.3,0.8,0.3,0.8,1.2,3.2h0a0.5,0.5,0,0,1-.2.6,4.8,4.8,0,0,1-1.5.6h-1.6l-1.6-.5-1.3-.9a33.2,33.2,0,0,0-4.8-3.2,13.4,13.4,0,0,0-5.4-1.7,6,6,0,0,0-2.6.4l-1.1.7-1,.9h0l-0.3.7a2.7,2.7,0,0,0-.1.7,2.3,2.3,0,0,0,.5,1.4,4.1,4.1,0,0,0,1.2,1l1.6,0.7a26.9,26.9,0,0,1,3.4,1.5l1.6,1,0.7,0.6,0.7,0.7h0l1.2,1.1,1.3,1,2.8,1.8,3,1.5,3.1,1.3-3.2-1-3.1-1.3-3-1.6-1.4-.9-1.4-1.1h0l-0.6-.5-0.7-.5-1.5-.9-3.2-1.5-1.7-.8a5.1,5.1,0,0,1-1.5-1.3,3.3,3.3,0,0,1-.7-2,3.7,3.7,0,0,1,.2-1,3.8,3.8,0,0,1,.4-1h0l1.1-1.1,1.4-.8a7,7,0,0,1,3.1-.5,14.4,14.4,0,0,1,5.8,1.8,34.2,34.2,0,0,1,5,3.3l1.1,0.7,1.2,0.4h1.3l1.2-.5-0.2.6-1.2-3.2-0.3-.8-0.3-.9a11.7,11.7,0,0,1-.4-1.8c0-.3-0.1-0.6-0.1-0.9v-0.8a6.4,6.4,0,0,0-.4-1.5,14.6,14.6,0,0,0-1.5-3h0l-0.3-.4-0.3-.4-0.4-.8a6.9,6.9,0,0,1-.6-1.7,0.5,0.5,0,0,1,0-.2h0a2.7,2.7,0,0,0,0-.6,4.6,4.6,0,0,0-.1-0.7,6.5,6.5,0,0,0-.5-1.3l-0.8-1.2-0.2-.3h-0.2l-0.5-.6-3.9-4.8h0l-0.6-1a6.6,6.6,0,0,1-.4-1.1,3,3,0,0,1-.1-1.3,1.7,1.7,0,0,1,.3-0.7l0.6-.5h-0.1l1-.5,1-.3h1l1,0.2h0.5l0.5,0.2,0.9,0.5,1.6,1.1,3,2.3,2.8,2.6h0.1Z" fill="#9e9e9e"/><path d="M128,171.7a14.4,14.4,0,0,1-1.3-2.5c-0.3-.9-0.7-1.8-0.9-2.7s-0.5-1.8-.7-2.8-0.4-1.9-.5-2.8-0.3-1.9-.4-2.8l-0.3-2.8c-0.1-.9-0.2-1.8-0.4-2.7a15.9,15.9,0,0,0-.7-2.6,8.9,8.9,0,0,0-3.1-4.3,6.1,6.1,0,0,0-2.4-1,5.2,5.2,0,0,0-2.6.1,3.8,3.8,0,0,0-2,1.4,3.8,3.8,0,0,0-.6,2.4v5.7a0.5,0.5,0,0,1-1,.1h0a28.9,28.9,0,0,0-1-4.6c-0.2-.7-0.5-1.5-0.8-2.2a17.8,17.8,0,0,0-1-2.1l-0.6-1-0.7-.9H105a6.5,6.5,0,0,0-2.1.6,2.2,2.2,0,0,0-1.3,1.4h0v1.4a11.1,11.1,0,0,0-.1,1.5,17.4,17.4,0,0,0,.4,3.1,0.5,0.5,0,0,1-.4.6h-0.5l-0.7-.7H100a3.6,3.6,0,0,0-1-1l-1.3-.7a5.5,5.5,0,0,0-2.9-.5,2.7,2.7,0,0,0-1.3.5,2.7,2.7,0,0,0-.8,1.1,6.5,6.5,0,0,0-.3,3h0l1.6,5.9a0.5,0.5,0,0,1-.9.3h0l-0.4-.7-0.5-.7a5.5,5.5,0,0,0-1.3-1.1,4,4,0,0,0-3.2-.5h0.1l-0.9.6a3,3,0,0,0-.7,1,3.5,3.5,0,0,0-.3,1.1,5.6,5.6,0,0,0,.1,1.2,7.5,7.5,0,0,0,.3,1.2l0.5,1.3c0.3,0.9.6,1.8,0.8,2.7s0.9,3.5,1.2,5.3,0.7,3.6,1,5.4h0c0,0.3,0,.7.1,1.1s0.1,0.7.2,1.1a18.6,18.6,0,0,0,.5,2.2,19.8,19.8,0,0,0,.7,2.1c0.3,0.7.6,1.4,0.9,2.1s0.7,1.3,1.1,2l1.3,1.9,1.4,1.8,1.5,1.7-1.6-1.6L94.2,189l-1.4-1.8-1.3-1.9c-0.4-.7-0.8-1.3-1.1-2.1a20.5,20.5,0,0,1-.9-2.2,19.5,19.5,0,0,1-.7-2.2l-0.2-1.2a9.7,9.7,0,0,1-.1-1.2h0c-0.6-3.6-1.3-7.1-2.2-10.6-0.2-.9-0.5-1.7-0.8-2.6l-0.5-1.3a8.4,8.4,0,0,1-.4-1.4,6.5,6.5,0,0,1-.1-1.5,4.5,4.5,0,0,1,.4-1.5,4,4,0,0,1,.9-1.3,4.2,4.2,0,0,1,1.3-.9h0.1a5.4,5.4,0,0,1,2-.1,5,5,0,0,1,1.9.7,6.4,6.4,0,0,1,1.5,1.3l0.6,0.8,0.5,0.9-0.9.3-1.6-5.9h0a7.4,7.4,0,0,1,.4-3.5,3.7,3.7,0,0,1,1.1-1.5,3.7,3.7,0,0,1,1.7-.7,6.5,6.5,0,0,1,3.5.5l1.5,0.9a4.5,4.5,0,0,1,1.2,1.4h-0.1l0.7,0.7-0.8.5a18.4,18.4,0,0,1-.4-3.3,12.1,12.1,0,0,1,.1-1.7c0-.3.1-0.6,0.1-0.8v-0.4l0.2-.5h0a2.6,2.6,0,0,1,.7-1.3,4.1,4.1,0,0,1,1.1-.8,7.5,7.5,0,0,1,2.4-.8h2l0.4,0.2,0.2,0.2h0.1l0.7,1,0.7,1a18.7,18.7,0,0,1,1.1,2.2c0.3,0.7.6,1.5,0.8,2.3a29.8,29.8,0,0,1,1.1,4.7h-1v-5.7a4.8,4.8,0,0,1,.8-3,4.8,4.8,0,0,1,2.6-1.7,6.2,6.2,0,0,1,3-.2,7.1,7.1,0,0,1,2.8,1.2,9.9,9.9,0,0,1,3.4,4.7,18.1,18.1,0,0,1,.8,2.8,21.1,21.1,0,0,1,.4,2.8l0.2,2.8c0.1,0.9.2,1.9,0.3,2.8s0.2,1.9.4,2.8,0.3,1.8.5,2.8,0.5,1.8.7,2.7A14.3,14.3,0,0,0,128,171.7Z" fill="#9e9e9e"/><path d="M124.7,157.2s1.5-4,5.3-.2c0,0-.7,6.7.7,10.3s-0.2,10.7-.2,10.7-3.7,5.9-3.2,7.8" fill="none" stroke="#9e9e9e" stroke-linecap="round" stroke-linejoin="round"/><path d="M96.9,192.4a21.8,21.8,0,0,1,.5,6.1,9.8,9.8,0,0,1-.6,3l-0.3.7-0.4.7-0.5.6-0.4.6-1.5,2.6-1.4,2.7-2.6,5.5c-3.4,7.3-6.7,14.7-9.9,22.1H79.6a18.8,18.8,0,0,0-2.4,5.9,23.5,23.5,0,0,0-.6,6.4,36.9,36.9,0,0,0,1,6.4c0.5,2.1,1,4.3,1.6,6.4,1.1,4.3,2.4,8.5,3.8,12.7a46.7,46.7,0,0,0,2.6,5.9,42.4,42.4,0,0,0,3.4,5.5,25.7,25.7,0,0,0,4.3,4.6,12.7,12.7,0,0,0,5.5,2.7h4.6l1.5-.3,3.1-.9,3-1.2c2-.9,4-1.9,5.9-2.9l2.9-1.6,2.8-1.7,5.6-3.6,5.4-3.8h0.1a0.1,0.1,0,0,1,0,.1c-1.7,1.5-3.4,2.8-5.2,4.2s-3.5,2.7-5.4,3.9l-2.8,1.8-2.8,1.8a62.2,62.2,0,0,1-5.9,3.2l-3.1,1.3-3.2,1.1-1.7.4-0.9.2H98.4a14.7,14.7,0,0,1-6.4-3,25,25,0,0,1-4.7-5,41.8,41.8,0,0,1-3.5-5.8,48.4,48.4,0,0,1-2.6-6.3c-1.3-4.2-2.5-8.5-3.6-12.8-0.5-2.2-1-4.3-1.5-6.5a38.2,38.2,0,0,1-.9-6.7,24.8,24.8,0,0,1,.7-6.8,21.2,21.2,0,0,1,1.1-3.2,16.7,16.7,0,0,1,1.6-3H78.7c3.3-7.4,6.8-14.7,10.3-22l2.7-5.4,1.4-2.7,1.6-2.6a11.7,11.7,0,0,0,1.7-2.5,9.5,9.5,0,0,0,.7-2.9,21.5,21.5,0,0,0-.4-6h0.2Z" fill="#9e9e9e"/><path d="M105.2,235.9l-1.8,2.7c-1.1,1.6-2.5,3.8-3.6,6.1l-0.8,1.7L98.2,248l-0.8,1.5-0.7,1.4L96.2,252l-0.4.9-0.4.8H95.1a9,9,0,0,1-.1-0.9,5.3,5.3,0,0,1,0-1.1,11.5,11.5,0,0,1,.2-1.4,16.3,16.3,0,0,1,.4-1.6,14.1,14.1,0,0,1,.7-1.7,16.4,16.4,0,0,1,1-1.7l1.1-1.6a55.8,55.8,0,0,1,4.4-5.7l2.2-2.4h0.1A0.1,0.1,0,0,1,105.2,235.9Z" fill="#9e9e9e"/><path d="M94.2,203.3h0a6.5,6.5,0,0,1-7.2-3.7L58.2,135.1l-12-91.2a4.5,4.5,0,0,1,4-5.1L175.2,27a4.6,4.6,0,0,1,5,4.2l8.4,86.2" fill="none" stroke="#8e8e8e" stroke-linecap="round" stroke-linejoin="round"/><path d="M176.1,37.1l-15.4,1.7-7.7.9-7.7.7-30.8,2.8L52.9,49l0.4-.6,5.4,37.2,1.4,9.3c0.5,3.1.8,6.2,1.2,9.3l2.4,18.7-3.1-18.6c-0.5-3.1-1.1-6.2-1.5-9.3l-1.4-9.3L52.4,48.5a0.5,0.5,0,0,1,.4-0.6h0l61.6-5.7,30.8-2.8,7.7-.7,7.7-.5Z" fill="#8e8e8e"/><path d="M176.1,40l2,16.8c0.3,2.8.7,5.6,0.9,8.4l0.8,8.4,3.2,33.7a0.5,0.5,0,0,1-.4.5l-58.9,8-29.5,4-7.4,1-7.4.8-14.8,1.7,14.7-2.3,7.3-1.2,7.4-1,29.5-4,58.9-8-0.4.5-3.2-33.7L178,65.4c-0.3-2.8-.4-5.6-0.7-8.4Z" fill="#8e8e8e"/><path d="M73.9,134.4l3.9-.6,10.3-1.6,14.6-2.1,16.7-2.3,16.7-2.2,14.6-1.8,10.4-1.2,3.9-.4-3.9.6-10.3,1.6-14.6,2.1-16.7,2.3-16.7,2.2-14.6,1.8L77.9,134Z" fill="#8e8e8e"/><line x1="189.9" y1="122.3" x2="198" y2="133.5" fill="none" stroke="#8e8e8e" stroke-linecap="round" stroke-linejoin="round"/><path d="M170.4,129.2L74.7,142.6a1.9,1.9,0,0,0-1.4,2.8l13.6,26.5" fill="none" stroke="#8e8e8e" stroke-linecap="round" stroke-linejoin="round" stroke-width="0.5"/><path d="M100.4,144.7" fill="none" stroke="#000" stroke-linecap="round" stroke-linejoin="round" stroke-width="0.1"/><path d="M90.9,152.3" fill="none" stroke="#000" stroke-linecap="round" stroke-linejoin="round" stroke-width="0.1"/><path d="M123.5,147.6" fill="none" stroke="#000" stroke-linecap="round" stroke-linejoin="round" stroke-width="0.1"/><path d="M84.7,160.2" fill="none" stroke="#000" stroke-linecap="round" stroke-linejoin="round" stroke-width="0.1"/><path d="M126.4,153.8" fill="none" stroke="#000" stroke-linecap="round" stroke-linejoin="round" stroke-width="0.1"/><path d="M156.4,149.3" fill="none" stroke="#000" stroke-linecap="round" stroke-linejoin="round" stroke-width="0.1"/><path d="M171.8,146.9" fill="none" stroke="#000" stroke-linecap="round" stroke-linejoin="round" stroke-width="0.1"/><line x1="109.9" y1="143.4" x2="173.2" y2="134.2" fill="none" stroke="#000" stroke-linecap="round" stroke-linejoin="round" stroke-width="0.1"/><line x1="75.8" y1="148.3" x2="100.4" y2="144.7" fill="none" stroke="#000" stroke-linecap="round" stroke-linejoin="round" stroke-width="0.1"/><line x1="90.9" y1="152.3" x2="78.9" y2="154" fill="none" stroke="#000" stroke-linecap="round" stroke-linejoin="round" stroke-width="0.1"/><line x1="175.4" y1="140.2" x2="123.5" y2="147.6" fill="none" stroke="#000" stroke-linecap="round" stroke-linejoin="round" stroke-width="0.1"/><line x1="156.4" y1="149.3" x2="125.9" y2="153.9" fill="none" stroke="#000" stroke-linecap="round" stroke-linejoin="round" stroke-width="0.1"/><line x1="176.8" y1="146.1" x2="171.8" y2="146.9" fill="none" stroke="#000" stroke-linecap="round" stroke-linejoin="round" stroke-width="0.1"/><line x1="166.1" y1="156.2" x2="130.7" y2="160.9" fill="none" stroke="#000" stroke-linecap="round" stroke-linejoin="round" stroke-width="0.1"/><line x1="132.4" y1="169.3" x2="173.5" y2="163.1" fill="none" stroke="#000" stroke-linecap="round" stroke-linejoin="round" stroke-width="0.1"/><line x1="131.4" y1="177.9" x2="146.7" y2="176" fill="none" stroke="#8e8e8e" stroke-linecap="round" stroke-linejoin="round" stroke-width="0.5"/><line x1="80.6" y1="143" x2="87.3" y2="154.2" fill="none" stroke="#000" stroke-linecap="round" stroke-linejoin="round" stroke-width="0.1"/><line x1="89" y1="142.1" x2="92.5" y2="147.8" fill="none" stroke="#000" stroke-linecap="round" stroke-linejoin="round" stroke-width="0.1"/><line x1="97.3" y1="140.6" x2="99.9" y2="144.9" fill="none" stroke="#000" stroke-linecap="round" stroke-linejoin="round" stroke-width="0.1"/><line x1="113.8" y1="138.2" x2="116.7" y2="143" fill="none" stroke="#000" stroke-linecap="round" stroke-linejoin="round" stroke-width="0.1"/><line x1="123.1" y1="136.8" x2="142.9" y2="175.7" fill="none" stroke="#000" stroke-linecap="round" stroke-linejoin="round" stroke-width="0.1"/><line x1="131.7" y1="135.4" x2="150.1" y2="170.9" fill="none" stroke="#000" stroke-linecap="round" stroke-linejoin="round" stroke-width="0.1"/><line x1="141" y1="134.4" x2="158.4" y2="167.6" fill="none" stroke="#000" stroke-linecap="round" stroke-linejoin="round" stroke-width="0.1"/><line x1="149.6" y1="133.7" x2="165.3" y2="164" fill="none" stroke="#000" stroke-linecap="round" stroke-linejoin="round" stroke-width="0.1"/><line x1="166.5" y1="131.1" x2="176.1" y2="148.3" fill="none" stroke="#000" stroke-linecap="round" stroke-linejoin="round" stroke-width="0.1"/><line x1="158.9" y1="132.5" x2="164.6" y2="144" fill="none" stroke="#000" stroke-linecap="round" stroke-linejoin="round" stroke-width="0.1"/><path d="M59.2,143.4H58.5l-1.8.5-2.7,1-3.3,1.6a37.9,37.9,0,0,0-3.6,2.3,42.6,42.6,0,0,0-3.5,3.1,42.9,42.9,0,0,0-3.3,3.8c-0.6.6-1,1.4-1.5,2.1L37.4,160l-1.3,2.3-1.2,2.4L33.8,167l-1,2.4c-0.6,1.6-1.3,3.1-1.7,4.6l-1.5,4.2-1.2,3.6-0.9,2.8-0.6,1.8-0.2.6H26.5V187l0.3-2.6c0.1-.8.2-1.8,0.4-2.9s0.4-2.4.7-3.8,0.6-2.9,1-4.4,0.9-3.2,1.4-4.9l0.9-2.5,1.1-2.5,1.2-2.5,1.4-2.5,1.5-2.4c0.6-.7,1.1-1.5,1.7-2.2a34.6,34.6,0,0,1,3.8-3.9,32,32,0,0,1,4.1-3,28.3,28.3,0,0,1,4.1-2.1,25,25,0,0,1,6.6-1.7,15.4,15.4,0,0,1,2.6-.1v0.2H59.2Z" fill="#8e8e8e"/><path d="M27.2,186c-0.4,2-.8,4-1.2,5.9s-0.8,3.9-1.3,5.9q-1.3,5.9-2.7,11.8c-1,3.9-1.9,7.8-3,11.7-0.5,1.9-1.1,3.9-1.6,5.8L15.8,233c-1.1,3.9-2.2,7.8-3.1,11.7s-1.9,7.8-2.8,11.8-1.7,7.9-2.7,11.8S5.4,276.1,4.5,280h0a29.5,29.5,0,0,0-.9,2.9c-0.3,1-.5,2-0.7,3.1s-0.3,2.1-.5,3.1-0.2,2.1-.2,3.1,0,2.1,0,3.1,0.2,2.1.3,3.1,0.4,2,.6,3.1l0.7,3.1q1.4,6.3,2.8,12.5l0.8,3.1a14.8,14.8,0,0,0,2.8,5.5,7.4,7.4,0,0,0,2.4,1.9,0.1,0.1,0,0,1,.1.1H12.5a7.2,7.2,0,0,1-2.7-1.8,13.9,13.9,0,0,1-2-2.6,12.5,12.5,0,0,1-1.4-3l-1-3.1q-1.9-6.1-3.5-12.4L1.1,302c-0.3-1-.5-2.1-0.7-3.2s-0.3-2.2-.4-3.3S0,294.4,0,293.9s0-1.1,0-1.6,0.1-2.2.2-3.3,0.3-2.2.5-3.3,0.5-2.1.8-3.2a31,31,0,0,1,1.1-3.2h0c1-3.9,2-7.8,3.1-11.7s2.2-7.8,3.3-11.6,2.2-7.8,3.2-11.7,1.9-7.8,2.8-11.8l1.3-5.9c0.4-2,.8-3.9,1.3-5.9,0.9-3.9,1.9-7.8,2.9-11.7s2.1-7.8,3.2-11.7c0.6-1.9,1.1-3.9,1.7-5.8s1.2-3.9,1.8-5.8h0.2Z" fill="#8e8e8e"/><path d="M42,188.7v2c0,1.2,0,3,0,5.1s0.2,4.6.5,7.2c0.1,0.7.2,1.3,0.2,2s0.2,1.4.3,2a20.7,20.7,0,0,0,.5,2l0.3,1,0.3,1,0.3,1,0.4,0.9a8.6,8.6,0,0,0,.4.9l0.5,0.9c0.3,0.6.8,1.1,1.2,1.7l1.2,1.7a67.9,67.9,0,0,1,3.6,6.4c1,1.9,1.6,3.6,2.1,4.7l0.7,1.8-0.9-1.7-2.5-4.5c-1-1.9-2.4-4-3.8-6.1l-1.2-1.6c-0.4-.6-0.8-1.1-1.2-1.7l-0.6-.9a9.3,9.3,0,0,1-.5-1l-0.5-1-0.4-1-0.3-1-0.3-1.1c-0.2-.7-0.3-1.4-0.4-2.1s-0.2-1.4-.3-2.1-0.2-1.4-.2-2-0.2-2.6-.2-3.9,0-2.4,0-3.5,0.2-3.9.3-5.2S42,188.7,42,188.7Z" fill="#8e8e8e"/><path d="M35.7,196.6s0,0.4,0,1,0.1,1.5.3,2.6,0.2,1.1.3,1.7,0.3,1.2.4,1.9,0.4,1.3.6,1.9a17.1,17.1,0,0,0,.8,1.9,15.6,15.6,0,0,0,.9,1.9,19,19,0,0,0,1.1,1.7,17.8,17.8,0,0,0,1.1,1.5l1.1,1.3,1,1.1,0.8,0.7,0.7,0.7-0.8-.5-1-.6-1.2-.9-1.3-1.2a13.1,13.1,0,0,1-1.3-1.5,14.8,14.8,0,0,1-1.2-1.8,16.2,16.2,0,0,1-1-1.9,18,18,0,0,1-.8-2c-0.3-.7-0.4-1.4-0.6-2s-0.3-1.3-.3-2a16.3,16.3,0,0,1-.1-1.8,18.3,18.3,0,0,1,.1-2.6A8,8,0,0,1,35.7,196.6Z" fill="#8e8e8e"/><path d="M24.7,198.2v1.5c0,0.5,0,1.1,0,1.7v2.2c0,0.8,0,1.7.1,2.6s0.1,1.9.2,2.9,0.2,2,.4,3.1,0.3,2.1.5,3.2,0.5,2.1.7,3.1,0.6,2,.9,3,0.6,1.9,1,2.7l1.1,2.4,1.1,1.9a13.4,13.4,0,0,0,1,1.4l0.9,1.2-1-1.1a13.8,13.8,0,0,1-1.1-1.3l-1.3-1.8-1.3-2.3c-0.4-.8-0.8-1.8-1.2-2.7s-0.7-2-1-3-0.5-2.1-.7-3.2-0.4-2.2-.5-3.2-0.2-2.1-.3-3.2-0.1-2-.1-3,0-1.8,0-2.6,0.2-3,.3-3.9S24.7,198.2,24.7,198.2Z" fill="#8e8e8e"/><path d="M22.1,215.2v1.2l0.2,1.4,0.3,1.8c0.2,1.3.5,2.8,0.8,4.3l0.3,1.2,0.3,1.2c0.2,0.8.5,1.6,0.7,2.5s0.6,1.6.9,2.4l1,2.3,1.1,2,1.2,1.7,1.1,1.4a9.5,9.5,0,0,0,1,1l0.9,0.8-1-.7-1.1-.8-1.3-1.3-1.3-1.7-1.3-2-1.1-2.3c-0.3-.8-0.7-1.6-0.9-2.5s-0.5-1.7-.7-2.5-0.4-1.7-.5-2.5a44,44,0,0,1-.5-4.5c-0.1-1.3-.1-2.4-0.1-3.2S22.1,215.2,22.1,215.2Z" fill="#8e8e8e"/><path d="M45.8,219.1a11,11,0,0,0-1.6,1.4,11.8,11.8,0,0,0-1.3,1.7l-0.6,1-0.5,1.1-0.4,1.2c-0.1.4-.2,0.8-0.3,1.2l-0.2,1.1v1c-0.1.6-.1,1.2-0.1,1.6v0a9,9,0,0,1-.3-1.6c0-.3-0.1-0.7-0.1-1.1s0-.8.1-1.2,0.1-.9.2-1.3l0.4-1.3,0.6-1.2,0.7-1.1,0.8-.9,0.8-.7A5.9,5.9,0,0,1,45.8,219.1Z" fill="#8e8e8e"/><path d="M77.7,267.4a39.2,39.2,0,0,1-3.4-2.8c-1.1-1-2.1-2-3.1-3.1l-1.4-1.7-1.4-1.7-1.3-1.8L66,254.4l-1-2c-0.3-.7-0.6-1.4-0.8-2.1l-0.7-2.1-0.6-2.1c-0.4-1.4-.8-2.8-1.3-4.1l-0.8-2-0.4-.9-0.2-.4h0.4l-0.9-.4-0.5-.7-0.6-.7-0.6-.6-0.7-.5-0.8-.4-0.8-.3-0.8-.2H52.4l-0.9.2-0.9.3-0.8.4-0.8.4-1.6.9,0.2-.2-2.7,3.7-2.6,3.8c-1.7,2.6-3.4,5.2-5,7.9-3.2,5.3-6.3,10.7-9.2,16.2v-0.3q-2.3,7.9-4.9,15.7l-2.6,7.8-1.4,3.9-1.5,3.9-0.9,2-1,1.9-0.2.7-0.2.8a15.5,15.5,0,0,0-.3,1.8,51.3,51.3,0,0,0,0,7.8c0.2,2.7.5,5.3,0.8,8s0.7,5.4,1.2,8h0v0.2c0.2,2.6.4,5.2,0.7,7.8s0.5,5.2.9,7.8,0.7,5.2,1.1,7.8,0.8,5.2,1.3,7.7,0.4,2.6.7,3.8l0.8,3.8,0.9,3.8c0.3,1.3.7,2.5,1,3.8s0.7,2.5,1.2,3.7,0.8,2.5,1.3,3.7l1.6,3.6,1.8,3.5h0a0.2,0.2,0,0,1-.1.3H30.3L28,388.2,26,384.7c-0.7-1.2-1.1-2.4-1.7-3.6l-0.8-1.8-0.7-1.9c-0.5-1.2-1-2.5-1.4-3.7l-1.2-3.8L19.2,366c-0.4-1.3-.7-2.6-1-3.9s-1.2-5.2-1.7-7.8-1-5.2-1.4-7.8-0.4-2.6-.6-3.9-0.4-2.6-.5-3.9-0.6-5.2-.8-7.9V331c-0.3-1.4-.5-2.7-0.7-4.1s-0.4-2.7-.5-4.1-0.6-5.5-.7-8.3a50.3,50.3,0,0,1,.2-8.5,19.1,19.1,0,0,1,.4-2.2l0.3-1.1,0.5-1.2,1-1.8,0.8-1.8,1.6-3.7,1.5-3.8,2.8-7.7c1.8-5.1,3.5-10.3,5.2-15.5h0V267c3.1-5.5,6.3-10.8,9.7-16.1,1.7-2.6,3.4-5.3,5.2-7.8l2.7-3.8,2.9-3.7h0l0.2-.2,1.8-1,1-.4,1-.4,1-.3,1-.2h2.1l1.1,0.2,1,0.3,1,0.4,0.9,0.6,0.8,0.7,0.7,0.8,0.6,0.8,0.6,0.9-0.9-.4h0.8l0.2,0.2,0.2,0.3,0.3,0.5,0.5,1.1,0.7,2.1c0.4,1.4.8,2.8,1.2,4.2l0.5,2.1,0.6,2.1c0.2,0.7.5,1.3,0.7,2l0.9,1.9,1,1.9,1.2,1.8,1.3,1.7,1.4,1.7c0.9,1.1,2,2.1,3,3.1a38.8,38.8,0,0,0,3.3,2.8,0.2,0.2,0,0,1,0,.3H77.7Z" fill="#8e8e8e"/><path d="M83.5,287.7H82.4l-3,.7a21,21,0,0,0-8.9,5.5,26,26,0,0,0-4.1,5.6,38.3,38.3,0,0,0-3,7.2c-0.2.6-.4,1.3-0.5,2s-0.4,1.3-.5,2l-0.4,2.1-0.2,1v1.1c-0.2,1.4-.4,2.9-0.5,4.3l-0.2,2.2c-0.1.7,0,1.5-.1,2.2s-0.1,3-.1,4.4,0,2.9.1,4.4,0.2,2.9.2,4.3l0.3,4.2c0.1,1.4.3,2.8,0.4,4.1l0.4,3.9c0.4,2.5.6,5,.9,7.2s0.6,4.3.9,6.1l0.7,4.7c0.4,2.6.6,4.1,0.6,4.1l-1.4-3.9c-0.4-1.3-1-2.8-1.4-4.6s-1.1-3.8-1.6-6-1.1-4.6-1.6-7.2-1-5.3-1.4-8.1l-0.6-4.3c-0.1-1.5-.3-3-0.4-4.5s-0.1-3-.2-4.6,0-3.1,0-4.6,0-1.5.1-2.3l0.2-2.3c0.1-1.5.4-3.1,0.6-4.6s0.6-3,.9-4.5,0.4-1.4.6-2.2,0.4-1.4.7-2.1a34.7,34.7,0,0,1,3.8-7.6,24.7,24.7,0,0,1,5.1-5.7,21,21,0,0,1,5.5-3.3,19.9,19.9,0,0,1,4.7-1.2,15.9,15.9,0,0,1,3.1-.1h1.1Z" fill="#8e8e8e"/><path d="M64.8,270.5s8.6,1.1,16.8,9.3" fill="none" stroke="#000" stroke-linecap="round" stroke-linejoin="round" stroke-width="0.1"/><path d="M74.1,285.8a19.9,19.9,0,0,1,10.4-.7" fill="none" stroke="#000" stroke-linecap="round" stroke-linejoin="round" stroke-width="0.1"/><path d="M110.3,296.6s-0.7,2.6-7.5-1.1" fill="none" stroke="#000" stroke-linecap="round" stroke-linejoin="round" stroke-width="0.1"/><path d="M193.4,225.8l0.9,1.7,0.9,2.1,1.2,2.9,1.3,3.6,1.4,4.3,1.3,5c0.4,1.8.8,3.7,1.2,5.6s0.7,4,1,6.2,0.6,4.3.8,6.6l0.4,3.5,0.2,3.6,0.2,3.6v11.3l-0.2,7.8c0,2.6-.3,5.3-0.5,7.9l-0.3,4c-0.1,1.3-.2,2.7-0.4,4-0.7,5.3-1.2,10.6-2.1,15.7l-1.3,7.7c-0.5,2.5-1.2,5-1.8,7.4-2.6,9.6-5.3,18.6-7.7,26.2-1.2,3.8-2.4,7.3-3.5,10.3l-2.8,7.9-2.5,6.9,2.4-6.9,2.6-8,3.3-10.4c2.4-7.6,5.1-16.5,7.7-26.1,0.6-2.4,1.3-4.9,1.8-7.3l1.3-7.7c1-5.1,1.4-10.4,2.1-15.7,0.2-1.3.3-2.6,0.4-4l0.3-4c0.2-2.6.4-5.3,0.5-7.9l0.2-7.8V274.5l-0.2-3.6-0.2-3.5-0.4-3.4c-0.3-2.3-.4-4.5-0.8-6.6s-0.6-4.2-1-6.1-0.8-3.8-1.2-5.6l-1.2-5-1.2-4.4-1.2-3.7-1.1-2.9-0.9-2.1Z" fill="#9e9e9e"/><path d="M190.9,226.7l0.8,1.8c0.5,1.2,1.2,2.9,1.9,5s1.7,4.9,2.6,8,1.8,6.7,2.6,10.6c0.2,1,.4,2,0.6,3l0.5,3.1,0.5,3.2,0.4,3.4c0.3,2.3.6,4.6,0.7,7l0.3,3.6v3.7c0.1,2.5.2,5,.2,7.6l-0.2,7.8c-0.3,5.2-.7,10.5-1.5,15.8l-0.5,4c-0.2,1.3-.5,2.6-0.7,3.9s-1,5.2-1.5,7.8c-1.2,5.1-2.3,10.1-3.5,15-0.6,2.4-1.2,4.8-1.8,7.1s-1.2,4.6-1.8,6.8c-1.2,4.4-2.4,8.6-3.6,12.4s-2.3,7.3-3.5,10.3-2.2,5.7-3.1,7.8-1.7,3.8-2.4,4.9a17.3,17.3,0,0,1-1,1.6,17.3,17.3,0,0,0,1-1.7c0.6-1.1,1.3-2.8,2.2-4.9s1.9-4.8,2.9-7.9c0.5-1.5,1.1-3.2,1.6-4.9s1.1-3.5,1.7-5.5c1.2-3.8,2.4-8,3.6-12.4,0.6-2.2,1.2-4.5,1.8-6.8s1.2-4.7,1.8-7.1c1.2-4.8,2.3-9.9,3.5-15,0.6-2.6,1-5.1,1.5-7.7s0.5-2.6.7-3.9l0.5-3.9c0.8-5.3,1.1-10.6,1.5-15.8l0.2-7.8c0-2.6-.1-5.1-0.2-7.6v-3.7l-0.3-3.6c-0.1-2.4-.5-4.7-0.7-7l-0.4-3.3-0.5-3.2-0.5-3.1c-0.2-1-.4-2-0.6-3s-0.8-3.8-1.2-5.6-0.8-3.5-1.2-5c-0.8-3.1-1.6-5.8-2.4-8s-1.4-3.9-1.8-5.1Z" fill="#9e9e9e"/><path d="M351.8,239l1.7,6.6,0.8,3.5,0.8,4.1c0.3,1.5.5,3.1,0.8,4.7l0.4,2.6,0.3,2.7,0.3,2.8c0.1,1,.2,1.9.2,2.9l0.3,6.2c0,2.1,0,4.3,0,6.5s0,2.2,0,3.4l-0.2,3.4c-0.2,2.3-.2,4.7-0.5,7l-0.8,7.2c-0.2,1.2-.2,2.4-0.5,3.6l-0.6,3.6-1.3,7.3-1.6,7.2-0.8,3.6c-0.3,1.2-.5,2.4-0.9,3.5-1.4,4.7-2.6,9.3-4,13.7l-4.3,12.6c-1.5,4-3,7.7-4.4,11.1l-2,4.9c-0.6,1.6-1.4,3-2,4.3l-3.3,7-2.9,6.1,2.7-6.2,3.1-7.1c0.6-1.4,1.3-2.8,1.9-4.4l2-4.9c1.3-3.4,2.9-7.1,4.4-11.1l4.3-12.6c1.4-4.4,2.6-9,4-13.7,0.4-1.2.6-2.4,0.9-3.5l0.8-3.6,1.6-7.2,1.2-7.3,0.6-3.6c0.2-1.2.3-2.4,0.5-3.6l0.8-7.2c0.2-2.4.3-4.7,0.5-7l0.2-3.4c0-1.1,0-2.3,0-3.4s0.1-4.4,0-6.5l-0.3-6.2c0-1-.1-2-0.2-2.9l-0.3-2.8-0.3-2.7-0.4-2.6c-0.2-1.7-.4-3.3-0.7-4.7l-0.7-4.1-0.7-3.5Z" fill="#9e9e9e"/><path d="M355.9,240.8l1.7,6.6,0.8,3.5,0.8,4.1c0.3,1.5.5,3.1,0.8,4.7l0.4,2.6,0.3,2.7,0.3,2.8c0.1,1,.2,1.9.2,2.9l0.3,6.2c0,2.1,0,4.3,0,6.5s0,2.2,0,3.4l-0.2,3.4c-0.2,2.3-.2,4.7-0.5,7l-0.8,7.2c-0.2,1.2-.2,2.4-0.5,3.6l-0.6,3.6-1.3,7.3-1.6,7.2-0.8,3.6c-0.3,1.2-.5,2.4-0.9,3.5-1.4,4.7-2.6,9.3-4,13.7l-4.3,12.6c-1.5,4-3,7.7-4.4,11.1l-2,4.9c-0.6,1.6-1.4,3-2,4.3l-3.3,7-2.9,6.1,2.7-6.2,3.1-7.1c0.6-1.4,1.3-2.8,1.9-4.4l2-4.9c1.3-3.4,2.9-7.1,4.4-11.1l4.3-12.6c1.4-4.4,2.6-9,4-13.7,0.4-1.2.6-2.4,0.9-3.5l0.8-3.6,1.6-7.2,1.3-7.3,0.6-3.6c0.2-1.2.3-2.4,0.5-3.6l0.8-7.2c0.2-2.4.3-4.7,0.5-7l0.2-3.4c0-1.1,0-2.3,0-3.4s0.1-4.4,0-6.5l-0.3-6.2c0-1-.1-2-0.2-2.9l-0.3-2.8-0.3-2.7-0.4-2.6c-0.2-1.7-.4-3.3-0.7-4.7l-0.7-4.1-0.7-3.5Z" fill="#9e9e9e"/><path d="M394.1,241.5a27,27,0,0,1-3.5-1.5l-1.7-.9-1.6-.9H388l-2.5.2h-2.5a25.1,25.1,0,0,0-5,.4h-0.1c-1.7-.3-3.4-0.3-5.1-0.5l-2.6-.2H357.1l1.2-.5,1.3-.4,2.6-.6,2.6-.3h5.3l2.6,0.4a35.2,35.2,0,0,1,5.1,1.5h-0.1a25.1,25.1,0,0,0,5-.6l2.5-.6,2.5-.3h0.6l1.5,1,1.5,1.1a27.1,27.1,0,0,1,2.8,2.5,0.1,0.1,0,0,1,0,.1h-0.1Z" fill="#9e9e9e"/></svg>