<svg xmlns="http://www.w3.org/2000/svg" viewBox="0 0 512 512">
  <defs>
    <style>
      .a {
        fill: #507c5c;
      }

      .b {
        fill: #b496e9;
      }

      .c {
        fill: #7740d7;
      }
    </style>
  </defs>
  <title>smartphone</title>
  <g>
    <path class="a" d="M412.9,512H99.1a56.9,56.9,0,0,1-56.8-56.8V56.8A56.9,56.9,0,0,1,99.1,0H412.9a56.9,56.9,0,0,1,56.8,56.8V455.2A56.9,56.9,0,0,1,412.9,512ZM99.1,27.2A29.7,29.7,0,0,0,69.5,56.8V455.2a29.7,29.7,0,0,0,29.6,29.6H412.9a29.7,29.7,0,0,0,29.6-29.6V56.8a29.7,29.7,0,0,0-29.6-29.6Z"/>
    <path class="a" d="M380.6,406.4H142.3a44.8,44.8,0,0,1-44.7-44.8V100a44.8,44.8,0,0,1,44.7-44.8H380.6c13,0,23.2,5.9,28.7,16.5,4.6,8.9,5.1,19.8,5.1,28.3V361.6c0,8.5-.5,19.4-5.1,28.3C403.8,400.5,393.6,406.4,380.6,406.4ZM142.3,82.5A17.5,17.5,0,0,0,124.8,100V361.6a17.5,17.5,0,0,0,17.5,17.5H380.6c3.6,0,4-.8,4.5-1.7,1.4-2.8,2.1-8.1,2.1-15.8V100c0-7.7-.7-13-2.1-15.8-.5-.9-.9-1.7-4.5-1.7Z"/>
  </g>
  <path class="b" d="M412.9,13.6H99.1A43.3,43.3,0,0,0,55.9,56.8V455.2a43.3,43.3,0,0,0,43.2,43.2H412.9a43.3,43.3,0,0,0,43.2-43.2V56.8A43.3,43.3,0,0,0,412.9,13.6Zm-12.1,348c0,17.2-3,31.2-20.2,31.2H142.3a31.2,31.2,0,0,1-31.1-31.2V100a31.1,31.1,0,0,1,31.1-31.1H380.6c17.2,0,20.2,13.9,20.2,31.1V361.6Z"/>
  <g>
    <path class="c" d="M412.9,512H99.1a56.9,56.9,0,0,1-56.8-56.8V56.8A56.9,56.9,0,0,1,99.1,0H412.9a56.9,56.9,0,0,1,56.8,56.8V455.2A56.9,56.9,0,0,1,412.9,512ZM99.1,27.2A29.7,29.7,0,0,0,69.5,56.8V455.2a29.7,29.7,0,0,0,29.6,29.6H412.9a29.7,29.7,0,0,0,29.6-29.6V56.8a29.7,29.7,0,0,0-29.6-29.6ZM380.6,406.4H142.3a44.8,44.8,0,0,1-44.7-44.8V100a44.8,44.8,0,0,1,44.7-44.8H380.6c13,0,23.2,5.9,28.7,16.5,4.6,8.9,5.1,19.8,5.1,28.3V361.6c0,8.5-.5,19.4-5.1,28.3C403.8,400.5,393.6,406.4,380.6,406.4ZM142.3,82.5A17.5,17.5,0,0,0,124.8,100V361.6a17.5,17.5,0,0,0,17.5,17.5H380.6c3.6,0,4-.8,4.5-1.7,1.4-2.8,2.1-8.1,2.1-15.8V100c0-7.7-.7-13-2.1-15.8-.5-.9-.9-1.7-4.5-1.7Z"/>
    <rect class="c" x="159.3" y="123.5" width="138.9" height="27.23"/>
    <rect class="c" x="159.3" y="187.1" width="193.4" height="27.23"/>
    <rect class="c" x="159.3" y="314.2" width="193.4" height="27.23"/>
    <rect class="c" x="159.3" y="250.6" width="138.9" height="27.23"/>
    <path class="c" d="M300.3,469.4H273v-20H239v20H211.7V448.3a26.2,26.2,0,0,1,26.1-26.1h36.4a26.2,26.2,0,0,1,26.1,26.1v21.1Z"/>
  </g>
</svg>
