<svg xmlns="http://www.w3.org/2000/svg" style="position: absolute; width: 0; height: 0; overflow: hidden;" version="1.1">
    <defs>
        <symbol id="overlay" viewBox="0 0 1200.5 151.9">
            <title>overlay</title>
            <path d="M961.7,19.3c25.4-2.6,51.3,1.6,73,13.6a128.4,128.4,0,0,1,49,48.3c2.4,4.2,4.2,4.1,7.8,1.6A78.5,78.5,0,0,1,1145,70.1c21.1,2.7,49.4,17.7,57.6,38.5,0,13.4-.1,26.9.1,40.3,0,2.5-.5,3.4-3,2.9a16.2,16.2,0,0,0-2.2,0H2.9c-4.2,0-5.3-.9-5.2-5.2.3-12.3.1-24.7.1-37,2.1-4.4,5.6-7.6,9.4-10.4C35.1,78.6,65.6,73,98.8,84.1c8.1,2.7,8.1,2.7,12.5-4.5C140.8,31.7,206,19.5,251.1,53.7c4,3.1,6,2.7,9.2-.9,36.3-42.6,113-48.8,152-6.1,4.1,4.5,8.1,5.4,14.1,3.6,54.5-16.5,125.6-8,164.7,36.9,2.5,2.9,4.2,3.1,7.4.7,36.3-27.1,93.7-31.6,130.5-2.3,3.1,2.4,4.7,2.5,7.1-1,31.9-46.7,93.8-63.5,143.5-35,4.4,2.5,7.1,1.9,11-1.3C910,32.1,935.5,22.1,961.7,19.3Z"/>
            <path d="M1202.6,19.4c0-.2.1-.5.1-.7h-.5c-26.5,0-51.9,14.4-68.7,34.1-3.2,3.7-5.2,4-9.2.9-45.1-34.2-110.3-22-139.8,25.9-4.4,7.2-4.4,7.2-12.4,4.5-33.3-11.1-63.7-5.5-91.6,15.2-3.7,2.7-7.1,5.8-9.2,10a1.6,1.6,0,0,0-.4-.7c-21.2-39.1-74.6-50.5-111-25.8-3.7,2.5-5.4,2.6-7.9-1.6C723.1,30.6,657.2,8.1,602.1,24.6A123.9,123.9,0,0,0,559,48.3c-3.8,3.2-6.5,3.8-10.9,1.3C498,20.9,436.4,38.1,404.6,84.6c-2.4,3.5-4,3.4-7,1-37.9-30.1-93-25.6-130.5,2.3-3.2,2.4-4.9,2.3-7.4-.7C220.2,41.7,150,33.6,95.1,50.3,86.5,52.9,78,45.1,72.1,40A90.8,90.8,0,0,0,47.6,24.5C33.5,18.4,13,16.6-2.3,18.7V151.8H1202.6Z" style="fill:currentColor;stroke:none;"/>
        </symbol>
        <symbol id="overlay-rotated" viewBox="0 0 151.9 1200.5" preserveAspectRatio="none">
            <title>overlay-rotated</title>
            <path d="M21.3,238.8c-2.6-25.4,1.6-51.4,13.6-73.1a127.5,127.5,0,0,1,48.3-48.9c4.2-2.4,4.1-4.2,1.6-7.9A78.2,78.2,0,0,1,72.1,55.5C74.8,34.3,89.8,6,110.6-2.2c13.4,0,26.9.1,40.3,0,2.5-.1,3.4.4,2.9,2.9a17.6,17.6,0,0,0,0,2.3q0,597.3.1,1194.5c0,4.3-.9,5.4-5.2,5.3-12.3-.4-24.7-.2-37-.2-4.4-2-7.6-5.5-10.4-9.4-20.7-27.9-26.3-58.3-15.2-91.5,2.7-8.1,2.7-8.1-4.5-12.5-47.9-29.5-60.1-94.7-25.9-139.8,3.1-4.1,2.8-6.1-.9-9.2C12.2,903.8,6,827.1,48.7,788.1c4.5-4.1,5.4-8,3.6-14-16.5-54.6-8-125.6,36.9-164.7,2.9-2.6,3.1-4.3.7-7.5-27.1-36.3-31.6-93.6-2.3-130.5,2.4-3,2.5-4.6-1-7-46.7-31.9-63.5-93.9-35-143.6,2.5-4.4,1.9-7.1-1.3-10.9C34.1,290.5,24.1,265,21.3,238.8Z"/><path d="M21.5-2.2h-.7v.5c0,26.4,14.4,51.9,34.1,68.7,3.6,3.1,4,5.1.9,9.2-34.2,45-22,110.2,25.9,139.7,7.2,4.4,7.2,4.4,4.5,12.5-11.1,33.2-5.5,63.6,15.2,91.5,2.7,3.7,5.8,7.1,10,9.2l-.7.4c-39.1,21.3-50.5,74.7-25.8,111.1,2.4,3.6,2.6,5.4-1.6,7.8-50.6,29-73.1,94.9-56.6,150a122.5,122.5,0,0,0,23.7,43c3.2,3.9,3.8,6.6,1.3,11C23,702.5,40.2,764.1,86.6,795.8c3.6,2.4,3.5,4.1,1.1,7.1-30.1,37.8-25.6,93,2.3,130.5,2.4,3.1,2.2,4.8-.7,7.4-45.5,39.4-53.6,109.7-36.9,164.6,2.5,8.6-5.2,17.1-10.3,23a87.8,87.8,0,0,0-15.5,24.5c-6.1,14-7.9,34.6-5.8,49.9H153.9V-2.2Z" style="fill:currentColor;stroke:none;"/>
        </symbol>
        <symbol id="ridge" viewBox="0 0 72 6.8">
            <title>ridge</title>
            <path d="M0,.5c6,0,6,5.8,12,5.8S18,.5,24,.5s6,5.8,12,5.8S42,.5,48,.5s6,5.8,12,5.8S66,.5,72,.5" style="fill: none;stroke: currentColor;stroke-miterlimit: 10;stroke-linecap:round"/>
        </symbol>
        <symbol id="heart" viewBox="0 0 32 32">
            <title>
                heart
            </title>
            <path d="M23 2c-2.404 0-4.331 0.863-6.030 2.563-0.001 0.001-0.002 0.002-0.003 0.003h-0.001l-0.966 1.217-0.966-1.143c-0.001-0.001-0.002-0.002-0.003-0.003h-0.001c-1.7-1.701-3.626-2.637-6.030-2.637s-4.664 0.936-6.364 2.636c-1.699 1.7-2.636 3.96-2.636 6.364 0 2.402 0.935 4.662 2.633 6.361l11.947 12.047c0.375 0.379 0.887 0.592 1.42 0.592s1.045-0.213 1.42-0.592l11.946-12.047c1.698-1.699 2.634-3.958 2.634-6.361s-0.937-4.664-2.636-6.364c-1.7-1.7-3.96-2.636-6.364-2.636v0z"/>
        </symbol>
        <symbol id="circ" viewBox="0 0 10 18.25">
            <title>
                circ
            </title>
            <path fill="currentColor" stroke="rgba(0,0,0,.125)" stroke-miterlimit="10" stroke-width=".5px" d="M0,18.125a9,9,0,0,0,0-18"/>
        </symbol>
        <symbol id="avatar" viewBox="0 0 32 32">
            <title>avatar</title>
            <path fill="none" d="M1.27,29a6.33,6.33,0,0,1,4.64-4.52C8.85,23.72,11,23,12,21.18a1.66,1.66,0,0,0-.28-1.87,10.6,10.6,0,0,1-2.3-3.79l0-.07a5,5,0,0,1-1.48-3A2,2,0,0,1,8.56,11c.08-.64,1.16-8,7.58-8s7.37,7.48,7.45,8.07c.17.21,1.22,1.7-.57,3.79l0,.07a11.47,11.47,0,0,1-2.61,4.55,1.71,1.71,0,0,0-.17,2.08A6,6,0,0,0,25,24.17c4.15.44,5.71,4.77,5.72,4.82"/>
        </symbol>
        <symbol id="search" viewBox="0 0 31 32">
            <title>
                search
            </title>
            <path fill="" stroke="none" d="M29.5,26l-5.8-6h0a12.5,12.5,0,0,0,1.9-6.7A12.7,12.7,0,0,0,13,.5,12.7,12.7,0,0,0,.4,13.3,12.7,12.7,0,0,0,13,26.1a13,13,0,0,0,6.2-1.6h0l5.9,6a3,3,0,0,0,4.4,0A3.1,3.1,0,0,0,29.5,26ZM13,21a7.6,7.6,0,0,1-7.6-7.7A7.7,7.7,0,0,1,13,5.5a7.7,7.7,0,0,1,7.6,7.8A7.6,7.6,0,0,1,13,21Z"/>
        </symbol>
        <symbol id="face" viewBox="0 0 32 32">
            <title>face</title>
            <path d="M31.11 28.336c-0.201-0.133-3.848-2.525-9.273-3.699 1.99-2.521 3.268-5.912 3.811-8.169 0.754-3.128 0.461-9.248-2.543-13.062-1.756-2.229-4.213-3.406-7.105-3.406s-5.349 1.178-7.104 3.406c-3.004 3.813-3.296 9.933-2.543 13.061 0.543 2.257 1.82 5.648 3.811 8.169-5.425 1.174-9.072 3.566-9.272 3.699-0.733 0.488-1.061 1.4-0.805 2.242 0.254 0.845 1.033 1.423 1.913 1.423h28c0.881 0 1.658-0.578 1.914-1.422 0.257-0.842-0.071-1.754-0.804-2.242zM20.267 23.398l-0.326 0.414c-2.385 2.74-5.495 2.74-7.879 0l-0.327-0.414c-2.785-3.529-4.167-8.197-3.572-12.65 0.545-4.279 2.997-8.748 7.837-8.748s7.293 4.47 7.838 8.749c0.593 4.455-0.784 9.118-3.571 12.649zM2 30c0.138-0.092 3.526-2.314 8.586-3.408l2.484-0.537c0.887 0.582 1.86 0.945 2.93 0.945 1.071 0 2.043-0.363 2.93-0.945l2.484 0.537c5.020 1.086 8.396 3.283 8.586 3.408h-28z"></path>
        </symbol>
        <symbol id="more" viewBox="0 0 34.5 14.5">
            <title>more</title>
            <path d="M5.6,3.4A3.9,3.9,0,1,0,9.5,7.3,3.9,3.9,0,0,0,5.6,3.4Z"/>
            <path d="M28.9,3.4a3.9,3.9,0,1,0,3.9,3.9A3.9,3.9,0,0,0,28.9,3.4Z"/>
            <path d="M17.3,3.4a3.9,3.9,0,1,0,3.9,3.9A3.9,3.9,0,0,0,17.3,3.4Z"/>
        </symbol>
        <symbol id="explore" viewBox="0 0 48 48">
            <title>
                explore
            </title>
            <path d="M24 36v-7.969h-12v7.969h12zM42 28.031h-1.969v12h-4.031v-12h-7.969v12h-20.063v-12h-1.969v-4.031l1.969-10.031h32.063l1.969 10.031v4.031zM40.031 7.969v4.031h-32.063v-4.031h32.063z"/>
        </symbol>
        <symbol id="pen" viewBox="0 0 32 32">
            <title>pen</title>
            <path d="M12 20l4-2 14-14-2-2-14 14-2 4zM9.041 27.097c-0.989-2.085-2.052-3.149-4.137-4.137l3.097-8.525 4-2.435 12-12h-6l-12 12-6 20 20-6 12-12v-6l-12 12-2.435 4z"></path>
        </symbol>
        <symbol id="home" viewBox="0 0 48 48">
            <title>
                home
            </title>
            <path d="M34.031 6c2.156 0 3.938 1.875 3.938 4.031v31.969l-13.969-6-13.969 6v-31.969c0-2.156 1.781-4.031 3.938-4.031h20.063z"/>
        </symbol>
    </defs>
</svg>
