<svg xmlns="http://www.w3.org/2000/svg" viewBox="0 0 335.5 66.4">
    <defs>
        <style>
            path { fill: #7740d7}
        </style>
    </defs>
    <title>
        woordmark
    </title>
    <g>
        <path d="M16.2,44.4c-5.7,0-11.3-2.3-14.2-5.1a5.2,5.2,0,1,1,7.1-7.7c1.6,1.5,7.5,3.5,10.8,1.3a2.9,2.9,0,0,0,1.4-2.5A2.7,2.7,0,0,0,19.4,28c-.8-.5-2.2-.5-3.8-.5a19,19,0,0,1-6.9-.9A13.1,13.1,0,0,1,4,4.8C8.4.8,14.8.2,19.5,1a15.9,15.9,0,0,1,8.4,3.8,5.3,5.3,0,0,1,.3,7.4,5.1,5.1,0,0,1-4.5,1.7,4.9,4.9,0,0,1-2.3-.8,7,7,0,0,0-3.7-1.7c-2.6-.5-7.5-.3-7.2,3.5a3.4,3.4,0,0,0,1.6,1.8,12.7,12.7,0,0,0,3.6.3,20.9,20.9,0,0,1,8.1,1.4,13.3,13.3,0,0,1,8,12,13.6,13.6,0,0,1-6.1,11.3A17.1,17.1,0,0,1,16.2,44.4Z"/>
        <path d="M58.8,44.4c-11.4,0-20.8-9.9-20.8-22V5.5A5,5,0,0,1,42.9.3c2.8,0,5.6,2.3,5.6,5.2V22.4c0,6.3,5.2,11.4,10.3,11.4s10.5-5.1,10.5-11.4V6.2c0-2.9,3.1-5.2,5.5-5.2a5.1,5.1,0,0,1,5,5.2V22.4C79.8,34.5,70.4,44.4,58.8,44.4Z"/>
        <path d="M145.8,17.2V38.9a5.2,5.2,0,0,1-5.2,5.3,5.4,5.4,0,0,1-5.4-5.3V17c0-3.4-3.1-6.1-6.7-6.1s-6.9,2.7-6.9,6.1V38.9a5.3,5.3,0,1,1-10.5,0V17c0-3.4-3.1-6.1-6.9-6.1s-6.8,2.7-6.8,6.1V39.2a5.3,5.3,0,0,1-5.3,5.2,5.4,5.4,0,0,1-5.3-5.2V5.5A5.4,5.4,0,0,1,92.1.2a4.7,4.7,0,0,1,4,2.1A18.6,18.6,0,0,1,104.2.4a17.9,17.9,0,0,1,12.2,4.7A17.1,17.1,0,0,1,128.5.4c9.4,0,17.3,7.4,17.3,16.6Z"/>
        <path d="M196,5.2V38.9a5,5,0,0,1-5.1,5c-2.9,0-4.6-2.3-4.6-5V37.8A20,20,0,0,1,172.8,43,21.3,21.3,0,1,1,186.3,5.6V5.2c0-2.7,1.7-5,4.6-5A5,5,0,0,1,196,5.2ZM183.8,21.8a11.1,11.1,0,0,0-22.1,0,11.1,11.1,0,0,0,22.1,0Z"/>
        <path d="M240.6,13.6a5.3,5.3,0,0,1-7.5.2,11,11,0,0,0-7.3-2.9,11.2,11.2,0,0,0-10.9,11.4V38.9a5.3,5.3,0,0,1-10.6,0V5.2A5.2,5.2,0,0,1,209.6,0a5.2,5.2,0,0,1,5,3.6,21.1,21.1,0,0,1,25.7,2.6A5.2,5.2,0,0,1,240.6,13.6Z"/>
        <path d="M285.1,5.6V44.1c0,12.2-9.8,22.3-21.7,22.3a21.3,21.3,0,0,1-16.3-7.8,5.5,5.5,0,0,1,.5-7.5,5,5,0,0,1,7.2.6,11.4,11.4,0,0,0,8.6,4.1,11.6,11.6,0,0,0,11.4-11.7V40.5a19.9,19.9,0,0,1-10,2.7c-11.1,0-20.2-9.7-20.2-21.6V5.8a5.1,5.1,0,1,1,10.2,0V21.6c0,6,4.5,11,10,11s10-5,10-11V5.6a5.2,5.2,0,1,1,10.3,0Z"/>
        <path d="M330.2,44.4H297.8a5.3,5.3,0,0,1-4.8-3.2,5,5,0,0,1,1.1-5.7l23.8-24.8H297.8a5.2,5.2,0,0,1-5.2-5.2A5.2,5.2,0,0,1,297.8.2h32.4a5.4,5.4,0,0,1,4.9,3.2A5.2,5.2,0,0,1,334,9.1L310.2,33.9h20a5.3,5.3,0,0,1,5.3,5.3A5.2,5.2,0,0,1,330.2,44.4Z"/>
    </g>
</svg>
