<svg xmlns="http://www.w3.org/2000/svg" xmlns:xlink="http://www.w3.org/1999/xlink" viewBox="0 0 396.9 345"><defs><style>.a,.e,.h{fill:none;}.b{fill:#f4f1fb;stroke:#d8d8d8;}.c{clip-path:url(#a);}.d{opacity:0.1;}.e{stroke:#000;}.e,.h{stroke-width:0.5px;}.f{isolation:isolate;}.g{fill:#fff;}.h{stroke:#ccc;}.i{fill:#c2c2c2;}</style><clipPath id="a"><path class="a" d="M3.5,172.5a172,172,0,0,0,172,172H412.4V.5H175.5A172,172,0,0,0,3.5,172.5Z"/></clipPath></defs><title>change-password-illustration</title><circle class="b" cx="175.4" cy="172.5" r="172"/><g class="c"><g class="d"><rect x="5.3" y="92.3" width="391.7" height="98.33"/><rect class="e" x="5.3" y="92.6" width="391.4" height="97.72"/><g class="f"><path d="M34.7,152.7H49.3a3.8,3.8,0,0,1,3.8,3.9h0a3.8,3.8,0,0,1-3.8,3.9H34.7a3.8,3.8,0,0,1-3.8-3.9h0A3.8,3.8,0,0,1,34.7,152.7Z"/><path d="M49.2,152.7H63.8a3.8,3.8,0,0,1,3.8,3.9h0a3.8,3.8,0,0,1-3.8,3.9H49.2a3.8,3.8,0,0,1-3.8-3.9h0A3.8,3.8,0,0,1,49.2,152.7Z"/><path d="M63.7,152.7H78.3a3.8,3.8,0,0,1,3.8,3.9h0a3.8,3.8,0,0,1-3.8,3.9H63.7a3.8,3.8,0,0,1-3.8-3.9h0A3.8,3.8,0,0,1,63.7,152.7Z"/><path d="M78.2,152.7h7.5a3.8,3.8,0,0,1,3.8,3.9h0a3.8,3.8,0,0,1-3.8,3.9H78.2a3.8,3.8,0,0,1-3.8-3.9h0A3.8,3.8,0,0,1,78.2,152.7Z"/><path d="M85.6,152.7h14.6a3.8,3.8,0,0,1,3.8,3.9h0a3.8,3.8,0,0,1-3.8,3.9H85.6a3.8,3.8,0,0,1-3.8-3.9h0A3.8,3.8,0,0,1,85.6,152.7Z"/><path d="M100.1,152.7h14.6a3.8,3.8,0,0,1,3.8,3.9h0a3.8,3.8,0,0,1-3.8,3.9H100.1a3.8,3.8,0,0,1-3.8-3.9h0A3.8,3.8,0,0,1,100.1,152.7Z"/><path d="M130.1,152.7h14.6a3.8,3.8,0,0,1,3.8,3.9h0a3.8,3.8,0,0,1-3.8,3.9H130.1a3.8,3.8,0,0,1-3.8-3.9h0A3.8,3.8,0,0,1,130.1,152.7Z"/><path d="M144.6,152.7h14.6a3.8,3.8,0,0,1,3.8,3.9h0a3.8,3.8,0,0,1-3.8,3.9H144.6a3.8,3.8,0,0,1-3.8-3.9h0A3.8,3.8,0,0,1,144.6,152.7Z"/><path d="M174.6,152.7h14.6a3.8,3.8,0,0,1,3.8,3.9h0a3.8,3.8,0,0,1-3.8,3.9H174.6a3.8,3.8,0,0,1-3.8-3.9h0A3.8,3.8,0,0,1,174.6,152.7Z"/><path d="M189.1,152.7h14.6a3.8,3.8,0,0,1,3.8,3.9h0a3.8,3.8,0,0,1-3.8,3.9H189.1a3.8,3.8,0,0,1-3.8-3.9h0A3.8,3.8,0,0,1,189.1,152.7Z"/><path d="M203.6,152.7h7.5a3.8,3.8,0,0,1,3.8,3.9h0a3.8,3.8,0,0,1-3.8,3.9h-7.5a3.8,3.8,0,0,1-3.8-3.9h0A3.8,3.8,0,0,1,203.6,152.7Z"/><path d="M211,152.7h7.5a3.8,3.8,0,0,1,3.8,3.9h0a3.8,3.8,0,0,1-3.8,3.9H211a3.8,3.8,0,0,1-3.8-3.9h0A3.8,3.8,0,0,1,211,152.7Z"/><path d="M218.4,152.7h7.4a3.8,3.8,0,0,1,3.9,3.9h0a3.8,3.8,0,0,1-3.9,3.9h-7.4a3.8,3.8,0,0,1-3.8-3.9h0A3.8,3.8,0,0,1,218.4,152.7Z"/><path d="M225.8,152.7h14.5a3.8,3.8,0,0,1,3.9,3.9h0a3.8,3.8,0,0,1-3.9,3.9H225.8a3.8,3.8,0,0,1-3.9-3.9h0A3.8,3.8,0,0,1,225.8,152.7Z"/></g><g class="f"><path d="M32.3,117.4h8.3a2.1,2.1,0,0,1,2.2,2.2h0a2.1,2.1,0,0,1-2.2,2.2H32.3a2.1,2.1,0,0,1-2.2-2.2h0A2.1,2.1,0,0,1,32.3,117.4Z"/><path d="M40.6,117.4h8.3a2.1,2.1,0,0,1,2.2,2.2h0a2.1,2.1,0,0,1-2.2,2.2H40.6a2.1,2.1,0,0,1-2.2-2.2h0A2.1,2.1,0,0,1,40.6,117.4Z"/><path d="M48.9,117.4h8.3a2.2,2.2,0,0,1,2.2,2.2h0a2.2,2.2,0,0,1-2.2,2.2H48.9a2.1,2.1,0,0,1-2.2-2.2h0A2.1,2.1,0,0,1,48.9,117.4Z"/><path d="M66,117.4h8.3a2.1,2.1,0,0,1,2.2,2.2h0a2.1,2.1,0,0,1-2.2,2.2H66a2.1,2.1,0,0,1-2.2-2.2h0A2.1,2.1,0,0,1,66,117.4Z"/><path d="M74.3,117.4h8.3a2.1,2.1,0,0,1,2.2,2.2h0a2.1,2.1,0,0,1-2.2,2.2H74.3a2.1,2.1,0,0,1-2.2-2.2h0A2.1,2.1,0,0,1,74.3,117.4Z"/><path d="M82.6,117.4h8.3a2.1,2.1,0,0,1,2.2,2.2h0a2.1,2.1,0,0,1-2.2,2.2H82.6a2.1,2.1,0,0,1-2.2-2.2h0A2.1,2.1,0,0,1,82.6,117.4Z"/><path d="M99.7,117.4H108a2.1,2.1,0,0,1,2.2,2.2h0a2.1,2.1,0,0,1-2.2,2.2H99.7a2.1,2.1,0,0,1-2.2-2.2h0A2.1,2.1,0,0,1,99.7,117.4Z"/><path d="M108,117.4h8.3a2.1,2.1,0,0,1,2.2,2.2h0a2.1,2.1,0,0,1-2.2,2.2H108a2.1,2.1,0,0,1-2.2-2.2h0A2.1,2.1,0,0,1,108,117.4Z"/><path d="M116.3,117.4h8.3a2.1,2.1,0,0,1,2.2,2.2h0a2.1,2.1,0,0,1-2.2,2.2h-8.3a2.1,2.1,0,0,1-2.2-2.2h0A2.1,2.1,0,0,1,116.3,117.4Z"/><path d="M124.6,117.4h8.3a2.1,2.1,0,0,1,2.2,2.2h0a2.1,2.1,0,0,1-2.2,2.2h-8.3a2.1,2.1,0,0,1-2.2-2.2h0A2.1,2.1,0,0,1,124.6,117.4Z"/></g><rect x="5.3" y="190.7" width="391.7" height="98.33"/><rect class="e" x="5.3" y="191" width="391.4" height="97.72"/><g class="f"><path d="M34.7,251.1H49.3a3.7,3.7,0,0,1,3.8,3.8h0a3.7,3.7,0,0,1-3.8,3.8H34.7a3.7,3.7,0,0,1-3.8-3.8h0A3.7,3.7,0,0,1,34.7,251.1Z"/><path d="M49.2,251.1H63.8a3.7,3.7,0,0,1,3.8,3.8h0a3.7,3.7,0,0,1-3.8,3.8H49.2a3.7,3.7,0,0,1-3.8-3.8h0A3.7,3.7,0,0,1,49.2,251.1Z"/><path d="M63.7,251.1H78.3a3.7,3.7,0,0,1,3.8,3.8h0a3.7,3.7,0,0,1-3.8,3.8H63.7a3.7,3.7,0,0,1-3.8-3.8h0A3.7,3.7,0,0,1,63.7,251.1Z"/><path d="M78.2,251.1h7.5a3.7,3.7,0,0,1,3.8,3.8h0a3.7,3.7,0,0,1-3.8,3.8H78.2a3.7,3.7,0,0,1-3.8-3.8h0A3.7,3.7,0,0,1,78.2,251.1Z"/><path d="M85.6,251.1h14.6a3.7,3.7,0,0,1,3.8,3.8h0a3.7,3.7,0,0,1-3.8,3.8H85.6a3.7,3.7,0,0,1-3.8-3.8h0A3.7,3.7,0,0,1,85.6,251.1Z"/><path d="M100.1,251.1h14.6a3.7,3.7,0,0,1,3.8,3.8h0a3.7,3.7,0,0,1-3.8,3.8H100.1a3.7,3.7,0,0,1-3.8-3.8h0A3.7,3.7,0,0,1,100.1,251.1Z"/><path d="M130.1,251.1h14.6a3.7,3.7,0,0,1,3.8,3.8h0a3.7,3.7,0,0,1-3.8,3.8H130.1a3.7,3.7,0,0,1-3.8-3.8h0A3.7,3.7,0,0,1,130.1,251.1Z"/><path d="M144.6,251.1h14.6a3.7,3.7,0,0,1,3.8,3.8h0a3.7,3.7,0,0,1-3.8,3.8H144.6a3.7,3.7,0,0,1-3.8-3.8h0A3.7,3.7,0,0,1,144.6,251.1Z"/><path d="M174.6,251.1h14.6a3.7,3.7,0,0,1,3.8,3.8h0a3.7,3.7,0,0,1-3.8,3.8H174.6a3.7,3.7,0,0,1-3.8-3.8h0A3.7,3.7,0,0,1,174.6,251.1Z"/><path d="M189.1,251.1h14.6a3.7,3.7,0,0,1,3.8,3.8h0a3.7,3.7,0,0,1-3.8,3.8H189.1a3.7,3.7,0,0,1-3.8-3.8h0A3.7,3.7,0,0,1,189.1,251.1Z"/><path d="M203.6,251.1h7.5a3.7,3.7,0,0,1,3.8,3.8h0a3.7,3.7,0,0,1-3.8,3.8h-7.5a3.7,3.7,0,0,1-3.8-3.8h0A3.7,3.7,0,0,1,203.6,251.1Z"/><path d="M211,251.1h7.5a3.7,3.7,0,0,1,3.8,3.8h0a3.7,3.7,0,0,1-3.8,3.8H211a3.7,3.7,0,0,1-3.8-3.8h0A3.7,3.7,0,0,1,211,251.1Z"/><path d="M218.4,251.1h7.4a3.7,3.7,0,0,1,3.9,3.8h0a3.7,3.7,0,0,1-3.9,3.8h-7.4a3.7,3.7,0,0,1-3.8-3.8h0A3.7,3.7,0,0,1,218.4,251.1Z"/><path d="M225.8,251.1h14.5a3.7,3.7,0,0,1,3.9,3.8h0a3.7,3.7,0,0,1-3.9,3.8H225.8a3.8,3.8,0,0,1-3.9-3.8h0A3.8,3.8,0,0,1,225.8,251.1Z"/></g><g class="f"><path d="M32.3,215.7h8.3a2.1,2.1,0,0,1,2.2,2.2h0a2.1,2.1,0,0,1-2.2,2.2H32.3a2.1,2.1,0,0,1-2.2-2.2h0A2.1,2.1,0,0,1,32.3,215.7Z"/><path d="M40.6,215.7h8.3a2.1,2.1,0,0,1,2.2,2.2h0a2.1,2.1,0,0,1-2.2,2.2H40.6a2.1,2.1,0,0,1-2.2-2.2h0A2.1,2.1,0,0,1,40.6,215.7Z"/><path d="M48.9,215.7h8.3a2.2,2.2,0,0,1,2.2,2.2h0a2.2,2.2,0,0,1-2.2,2.2H48.9a2.1,2.1,0,0,1-2.2-2.2h0A2.1,2.1,0,0,1,48.9,215.7Z"/><path d="M66,215.7h8.3a2.1,2.1,0,0,1,2.2,2.2h0a2.1,2.1,0,0,1-2.2,2.2H66a2.1,2.1,0,0,1-2.2-2.2h0A2.1,2.1,0,0,1,66,215.7Z"/><path d="M74.3,215.7h8.3a2.1,2.1,0,0,1,2.2,2.2h0a2.1,2.1,0,0,1-2.2,2.2H74.3a2.1,2.1,0,0,1-2.2-2.2h0A2.1,2.1,0,0,1,74.3,215.7Z"/><path d="M82.6,215.7h8.3a2.1,2.1,0,0,1,2.2,2.2h0a2.1,2.1,0,0,1-2.2,2.2H82.6a2.1,2.1,0,0,1-2.2-2.2h0A2.1,2.1,0,0,1,82.6,215.7Z"/><path d="M99.7,215.7H108a2.1,2.1,0,0,1,2.2,2.2h0a2.1,2.1,0,0,1-2.2,2.2H99.7a2.1,2.1,0,0,1-2.2-2.2h0A2.1,2.1,0,0,1,99.7,215.7Z"/><path d="M108,215.7h8.3a2.1,2.1,0,0,1,2.2,2.2h0a2.1,2.1,0,0,1-2.2,2.2H108a2.1,2.1,0,0,1-2.2-2.2h0A2.1,2.1,0,0,1,108,215.7Z"/><path d="M116.3,215.7h8.3a2.1,2.1,0,0,1,2.2,2.2h0a2.1,2.1,0,0,1-2.2,2.2h-8.3a2.1,2.1,0,0,1-2.2-2.2h0A2.1,2.1,0,0,1,116.3,215.7Z"/><path d="M124.6,215.7h8.3a2.1,2.1,0,0,1,2.2,2.2h0a2.1,2.1,0,0,1-2.2,2.2h-8.3a2.1,2.1,0,0,1-2.2-2.2h0A2.1,2.1,0,0,1,124.6,215.7Z"/></g></g><rect class="g" x="0.3" y="87.3" width="391.7" height="98.33"/><rect class="h" x="0.3" y="87.6" width="391.4" height="97.72"/><g class="f"><g class="f"><path d="M29.7,147.7H44.3a3.8,3.8,0,0,1,3.8,3.9h0a3.8,3.8,0,0,1-3.8,3.9H29.7a3.8,3.8,0,0,1-3.8-3.9h0A3.8,3.8,0,0,1,29.7,147.7Z"/><path d="M44.2,147.7H58.8a3.8,3.8,0,0,1,3.8,3.9h0a3.8,3.8,0,0,1-3.8,3.9H44.2a3.8,3.8,0,0,1-3.8-3.9h0A3.8,3.8,0,0,1,44.2,147.7Z"/><path d="M58.7,147.7H73.3a3.8,3.8,0,0,1,3.8,3.9h0a3.8,3.8,0,0,1-3.8,3.9H58.7a3.8,3.8,0,0,1-3.8-3.9h0A3.8,3.8,0,0,1,58.7,147.7Z"/><path d="M73.2,147.7h7.5a3.8,3.8,0,0,1,3.8,3.9h0a3.8,3.8,0,0,1-3.8,3.9H73.2a3.8,3.8,0,0,1-3.8-3.9h0A3.8,3.8,0,0,1,73.2,147.7Z"/><path d="M80.6,147.7H95.2a3.8,3.8,0,0,1,3.8,3.9h0a3.8,3.8,0,0,1-3.8,3.9H80.6a3.8,3.8,0,0,1-3.8-3.9h0A3.8,3.8,0,0,1,80.6,147.7Z"/><path d="M95.1,147.7h14.6a3.8,3.8,0,0,1,3.8,3.9h0a3.8,3.8,0,0,1-3.8,3.9H95.1a3.8,3.8,0,0,1-3.8-3.9h0A3.8,3.8,0,0,1,95.1,147.7Z"/><path d="M125.1,147.7h14.6a3.8,3.8,0,0,1,3.8,3.9h0a3.8,3.8,0,0,1-3.8,3.9H125.1a3.8,3.8,0,0,1-3.8-3.9h0A3.8,3.8,0,0,1,125.1,147.7Z"/><path d="M139.6,147.7h14.6a3.8,3.8,0,0,1,3.8,3.9h0a3.8,3.8,0,0,1-3.8,3.9H139.6a3.8,3.8,0,0,1-3.8-3.9h0A3.8,3.8,0,0,1,139.6,147.7Z"/><path d="M169.6,147.7h14.6a3.8,3.8,0,0,1,3.8,3.9h0a3.8,3.8,0,0,1-3.8,3.9H169.6a3.8,3.8,0,0,1-3.8-3.9h0A3.8,3.8,0,0,1,169.6,147.7Z"/><path d="M184.1,147.7h14.6a3.8,3.8,0,0,1,3.8,3.9h0a3.8,3.8,0,0,1-3.8,3.9H184.1a3.8,3.8,0,0,1-3.8-3.9h0A3.8,3.8,0,0,1,184.1,147.7Z"/><path d="M198.6,147.7h7.5a3.8,3.8,0,0,1,3.8,3.9h0a3.8,3.8,0,0,1-3.8,3.9h-7.5a3.8,3.8,0,0,1-3.8-3.9h0A3.8,3.8,0,0,1,198.6,147.7Z"/><path d="M206,147.7h7.5a3.8,3.8,0,0,1,3.8,3.9h0a3.8,3.8,0,0,1-3.8,3.9H206a3.8,3.8,0,0,1-3.8-3.9h0A3.8,3.8,0,0,1,206,147.7Z"/><path d="M213.4,147.7h7.4a3.8,3.8,0,0,1,3.9,3.9h0a3.8,3.8,0,0,1-3.9,3.9h-7.4a3.8,3.8,0,0,1-3.8-3.9h0A3.8,3.8,0,0,1,213.4,147.7Z"/><path d="M220.8,147.7h14.5a3.8,3.8,0,0,1,3.9,3.9h0a3.8,3.8,0,0,1-3.9,3.9H220.8a3.8,3.8,0,0,1-3.9-3.9h0A3.8,3.8,0,0,1,220.8,147.7Z"/></g></g><g class="f"><g class="f"><path class="i" d="M27.3,112.4h8.3a2.1,2.1,0,0,1,2.2,2.2h0a2.1,2.1,0,0,1-2.2,2.2H27.3a2.1,2.1,0,0,1-2.2-2.2h0A2.1,2.1,0,0,1,27.3,112.4Z"/><path class="i" d="M35.6,112.4h8.3a2.1,2.1,0,0,1,2.2,2.2h0a2.1,2.1,0,0,1-2.2,2.2H35.6a2.1,2.1,0,0,1-2.2-2.2h0A2.1,2.1,0,0,1,35.6,112.4Z"/><path class="i" d="M43.9,112.4h8.3a2.2,2.2,0,0,1,2.2,2.2h0a2.2,2.2,0,0,1-2.2,2.2H43.9a2.1,2.1,0,0,1-2.2-2.2h0A2.1,2.1,0,0,1,43.9,112.4Z"/><path class="i" d="M61,112.4h8.3a2.1,2.1,0,0,1,2.2,2.2h0a2.1,2.1,0,0,1-2.2,2.2H61a2.1,2.1,0,0,1-2.2-2.2h0A2.1,2.1,0,0,1,61,112.4Z"/><path class="i" d="M69.3,112.4h8.3a2.1,2.1,0,0,1,2.2,2.2h0a2.1,2.1,0,0,1-2.2,2.2H69.3a2.1,2.1,0,0,1-2.2-2.2h0A2.1,2.1,0,0,1,69.3,112.4Z"/><path class="i" d="M77.6,112.4h8.3a2.1,2.1,0,0,1,2.2,2.2h0a2.1,2.1,0,0,1-2.2,2.2H77.6a2.1,2.1,0,0,1-2.2-2.2h0A2.1,2.1,0,0,1,77.6,112.4Z"/><path class="i" d="M94.7,112.4H103a2.1,2.1,0,0,1,2.2,2.2h0a2.1,2.1,0,0,1-2.2,2.2H94.7a2.1,2.1,0,0,1-2.2-2.2h0A2.1,2.1,0,0,1,94.7,112.4Z"/><path class="i" d="M103,112.4h8.3a2.1,2.1,0,0,1,2.2,2.2h0a2.1,2.1,0,0,1-2.2,2.2H103a2.1,2.1,0,0,1-2.2-2.2h0A2.1,2.1,0,0,1,103,112.4Z"/><path class="i" d="M111.3,112.4h8.3a2.1,2.1,0,0,1,2.2,2.2h0a2.1,2.1,0,0,1-2.2,2.2h-8.3a2.1,2.1,0,0,1-2.2-2.2h0A2.1,2.1,0,0,1,111.3,112.4Z"/><path class="i" d="M119.6,112.4h8.3a2.1,2.1,0,0,1,2.2,2.2h0a2.1,2.1,0,0,1-2.2,2.2h-8.3a2.1,2.1,0,0,1-2.2-2.2h0A2.1,2.1,0,0,1,119.6,112.4Z"/></g></g><rect class="g" x="0.3" y="185.7" width="391.7" height="98.33"/><rect class="h" x="0.3" y="186" width="391.4" height="97.72"/><g class="f"><g class="f"><path d="M29.7,246.1H44.3a3.7,3.7,0,0,1,3.8,3.8h0a3.7,3.7,0,0,1-3.8,3.8H29.7a3.7,3.7,0,0,1-3.8-3.8h0A3.7,3.7,0,0,1,29.7,246.1Z"/><path d="M44.2,246.1H58.8a3.7,3.7,0,0,1,3.8,3.8h0a3.7,3.7,0,0,1-3.8,3.8H44.2a3.7,3.7,0,0,1-3.8-3.8h0A3.7,3.7,0,0,1,44.2,246.1Z"/><path d="M58.7,246.1H73.3a3.7,3.7,0,0,1,3.8,3.8h0a3.7,3.7,0,0,1-3.8,3.8H58.7a3.7,3.7,0,0,1-3.8-3.8h0A3.7,3.7,0,0,1,58.7,246.1Z"/><path d="M73.2,246.1h7.5a3.7,3.7,0,0,1,3.8,3.8h0a3.7,3.7,0,0,1-3.8,3.8H73.2a3.7,3.7,0,0,1-3.8-3.8h0A3.7,3.7,0,0,1,73.2,246.1Z"/><path d="M80.6,246.1H95.2a3.7,3.7,0,0,1,3.8,3.8h0a3.7,3.7,0,0,1-3.8,3.8H80.6a3.7,3.7,0,0,1-3.8-3.8h0A3.7,3.7,0,0,1,80.6,246.1Z"/><path d="M95.1,246.1h14.6a3.7,3.7,0,0,1,3.8,3.8h0a3.7,3.7,0,0,1-3.8,3.8H95.1a3.7,3.7,0,0,1-3.8-3.8h0A3.7,3.7,0,0,1,95.1,246.1Z"/><path d="M125.1,246.1h14.6a3.7,3.7,0,0,1,3.8,3.8h0a3.7,3.7,0,0,1-3.8,3.8H125.1a3.7,3.7,0,0,1-3.8-3.8h0A3.7,3.7,0,0,1,125.1,246.1Z"/><path d="M139.6,246.1h14.6a3.7,3.7,0,0,1,3.8,3.8h0a3.7,3.7,0,0,1-3.8,3.8H139.6a3.7,3.7,0,0,1-3.8-3.8h0A3.7,3.7,0,0,1,139.6,246.1Z"/><path d="M169.6,246.1h14.6a3.7,3.7,0,0,1,3.8,3.8h0a3.7,3.7,0,0,1-3.8,3.8H169.6a3.7,3.7,0,0,1-3.8-3.8h0A3.7,3.7,0,0,1,169.6,246.1Z"/><path d="M184.1,246.1h14.6a3.7,3.7,0,0,1,3.8,3.8h0a3.7,3.7,0,0,1-3.8,3.8H184.1a3.7,3.7,0,0,1-3.8-3.8h0A3.7,3.7,0,0,1,184.1,246.1Z"/><path d="M198.6,246.1h7.5a3.7,3.7,0,0,1,3.8,3.8h0a3.7,3.7,0,0,1-3.8,3.8h-7.5a3.7,3.7,0,0,1-3.8-3.8h0A3.7,3.7,0,0,1,198.6,246.1Z"/><path d="M206,246.1h7.5a3.7,3.7,0,0,1,3.8,3.8h0a3.7,3.7,0,0,1-3.8,3.8H206a3.7,3.7,0,0,1-3.8-3.8h0A3.7,3.7,0,0,1,206,246.1Z"/><path d="M213.4,246.1h7.4a3.7,3.7,0,0,1,3.9,3.8h0a3.7,3.7,0,0,1-3.9,3.8h-7.4a3.7,3.7,0,0,1-3.8-3.8h0A3.7,3.7,0,0,1,213.4,246.1Z"/><path d="M220.8,246.1h14.5a3.7,3.7,0,0,1,3.9,3.8h0a3.7,3.7,0,0,1-3.9,3.8H220.8a3.8,3.8,0,0,1-3.9-3.8h0A3.8,3.8,0,0,1,220.8,246.1Z"/></g></g><g class="f"><g class="f"><path class="i" d="M27.3,210.7h8.3a2.1,2.1,0,0,1,2.2,2.2h0a2.1,2.1,0,0,1-2.2,2.2H27.3a2.1,2.1,0,0,1-2.2-2.2h0A2.1,2.1,0,0,1,27.3,210.7Z"/><path class="i" d="M35.6,210.7h8.3a2.1,2.1,0,0,1,2.2,2.2h0a2.1,2.1,0,0,1-2.2,2.2H35.6a2.1,2.1,0,0,1-2.2-2.2h0A2.1,2.1,0,0,1,35.6,210.7Z"/><path class="i" d="M43.9,210.7h8.3a2.2,2.2,0,0,1,2.2,2.2h0a2.2,2.2,0,0,1-2.2,2.2H43.9a2.1,2.1,0,0,1-2.2-2.2h0A2.1,2.1,0,0,1,43.9,210.7Z"/><path class="i" d="M61,210.7h8.3a2.1,2.1,0,0,1,2.2,2.2h0a2.1,2.1,0,0,1-2.2,2.2H61a2.1,2.1,0,0,1-2.2-2.2h0A2.1,2.1,0,0,1,61,210.7Z"/><path class="i" d="M69.3,210.7h8.3a2.1,2.1,0,0,1,2.2,2.2h0a2.1,2.1,0,0,1-2.2,2.2H69.3a2.1,2.1,0,0,1-2.2-2.2h0A2.1,2.1,0,0,1,69.3,210.7Z"/><path class="i" d="M77.6,210.7h8.3a2.1,2.1,0,0,1,2.2,2.2h0a2.1,2.1,0,0,1-2.2,2.2H77.6a2.1,2.1,0,0,1-2.2-2.2h0A2.1,2.1,0,0,1,77.6,210.7Z"/><path class="i" d="M94.7,210.7H103a2.1,2.1,0,0,1,2.2,2.2h0a2.1,2.1,0,0,1-2.2,2.2H94.7a2.1,2.1,0,0,1-2.2-2.2h0A2.1,2.1,0,0,1,94.7,210.7Z"/><path class="i" d="M103,210.7h8.3a2.1,2.1,0,0,1,2.2,2.2h0a2.1,2.1,0,0,1-2.2,2.2H103a2.1,2.1,0,0,1-2.2-2.2h0A2.1,2.1,0,0,1,103,210.7Z"/><path class="i" d="M111.3,210.7h8.3a2.1,2.1,0,0,1,2.2,2.2h0a2.1,2.1,0,0,1-2.2,2.2h-8.3a2.1,2.1,0,0,1-2.2-2.2h0A2.1,2.1,0,0,1,111.3,210.7Z"/><path class="i" d="M119.6,210.7h8.3a2.1,2.1,0,0,1,2.2,2.2h0a2.1,2.1,0,0,1-2.2,2.2h-8.3a2.1,2.1,0,0,1-2.2-2.2h0A2.1,2.1,0,0,1,119.6,210.7Z"/></g></g></g></svg>