<svg xmlns="http://www.w3.org/2000/svg" viewBox="0 0 727 524.5"><defs><style>.a{opacity:0.1;}.b,.i{stroke:#000;}.c{fill:#502895;}.d{fill:#f4f1fb;stroke:#d8d8d8;}.e{fill:#fff;}.f{isolation:isolate;}.g{fill:#7740d7;}.h{fill:#c9c9c9;}.i,.j{fill:none;stroke-width:0.5px;}.j{stroke:#ccc;}.k{fill:#c2c2c2;}.l{opacity:0.05;}.m{fill:#ddd4f3;}</style></defs><title>publish-illustration</title><g class="a"><path d="M726.5,22.8V24H6.5V22.8C6.5,13.5,11.9,6,18.5,6h696C721.1,6,726.5,13.5,726.5,22.8Z"/><path class="b" d="M726.5,24V507.2c0,9.3-5.4,16.8-12,16.8H18.5c-6.6,0-12-7.5-12-16.8V24Z"/></g><path class="c" d="M720.5,16.8V18H.5V16.8C.5,7.5,5.9,0,12.5,0h696C715.1,0,720.5,7.5,720.5,16.8Z"/><path class="d" d="M720.5,18V501.2c0,9.3-5.4,16.8-12,16.8H12.5c-6.6,0-12-7.5-12-16.8V18Z"/><path class="e" d="M1.5,18h719V63H1.5Z"/><g class="f"><g class="f"><path class="g" d="M42.7,39.4h4a2.1,2.1,0,0,1,2.1,2.1h0a2.1,2.1,0,0,1-2.1,2.1h-4a2.1,2.1,0,0,1-2.1-2.1h0A2.1,2.1,0,0,1,42.7,39.4Z"/><path class="g" d="M46.7,39.4h7.9a2.1,2.1,0,0,1,2.1,2.1h0a2.1,2.1,0,0,1-2.1,2.1H46.7a2.1,2.1,0,0,1-2.1-2.1h0A2.1,2.1,0,0,1,46.7,39.4Z"/><path class="g" d="M54.6,39.4h7.9a2,2,0,0,1,2,2.1h0a2,2,0,0,1-2,2.1H54.6a2,2,0,0,1-2.1-2.1h0A2,2,0,0,1,54.6,39.4Z"/><path class="g" d="M62.4,39.4h7.9a2.1,2.1,0,0,1,2.1,2.1h0a2.1,2.1,0,0,1-2.1,2.1H62.4a2.1,2.1,0,0,1-2.1-2.1h0A2.1,2.1,0,0,1,62.4,39.4Z"/></g></g><g class="f"><g class="f"><path class="h" d="M594.9,39.4h7.9a2.1,2.1,0,0,1,2.1,2.1h0a2.1,2.1,0,0,1-2.1,2.1h-7.9a2.1,2.1,0,0,1-2.1-2.1h0A2.1,2.1,0,0,1,594.9,39.4Z"/><path class="h" d="M602.7,39.4h7.9a2,2,0,0,1,2.1,2.1h0a2,2,0,0,1-2.1,2.1h-7.9a2,2,0,0,1-2-2.1h0A2,2,0,0,1,602.7,39.4Z"/><path class="h" d="M610.6,39.4h7.9a2.1,2.1,0,0,1,2.1,2.1h0a2.1,2.1,0,0,1-2.1,2.1h-7.9a2.1,2.1,0,0,1-2.1-2.1h0A2.1,2.1,0,0,1,610.6,39.4Z"/><path class="h" d="M618.5,39.4h4a2.1,2.1,0,0,1,2.1,2.1h0a2.1,2.1,0,0,1-2.1,2.1h-4a2.1,2.1,0,0,1-2.1-2.1h0A2.1,2.1,0,0,1,618.5,39.4Z"/><path class="h" d="M622.5,39.4h7.9a2.1,2.1,0,0,1,2.1,2.1h0a2.1,2.1,0,0,1-2.1,2.1h-7.9a2.1,2.1,0,0,1-2.1-2.1h0A2.1,2.1,0,0,1,622.5,39.4Z"/><path class="h" d="M630.4,39.4h7.9a2,2,0,0,1,2,2.1h0a2,2,0,0,1-2,2.1h-7.9a2.1,2.1,0,0,1-2.1-2.1h0A2.1,2.1,0,0,1,630.4,39.4Z"/><path class="h" d="M638.2,39.4h7.9a2.1,2.1,0,0,1,2.1,2.1h0a2.1,2.1,0,0,1-2.1,2.1h-7.9a2.1,2.1,0,0,1-2.1-2.1h0A2.1,2.1,0,0,1,638.2,39.4Z"/></g></g><g class="f"><g class="f"><path class="h" d="M662.6,39.4h7.9a2.1,2.1,0,0,1,2.1,2.1h0a2.1,2.1,0,0,1-2.1,2.1h-7.9a2.1,2.1,0,0,1-2.1-2.1h0A2.1,2.1,0,0,1,662.6,39.4Z"/><path class="h" d="M670.5,39.4h7.9a2.1,2.1,0,0,1,2.1,2.1h0a2.1,2.1,0,0,1-2.1,2.1h-7.9a2.1,2.1,0,0,1-2.1-2.1h0A2.1,2.1,0,0,1,670.5,39.4Z"/></g></g><g class="a"><rect x="175.9" y="336.7" width="364.2" height="57.41"/><rect class="i" x="175.9" y="336.9" width="364.2" height="57.05"/><g class="f"><path d="M199.2,372h11.5c1.8,0,3.1.9,3.1,2.2h0c0,1.3-1.3,2.2-3.1,2.2H199.2c-1.8,0-3-.9-3-2.2h0C196.2,372.9,197.4,372,199.2,372Z"/><path d="M210.7,372h11.5c1.7,0,3,.9,3,2.2h0c0,1.3-1.3,2.2-3,2.2H210.7c-1.8,0-3.1-.9-3.1-2.2h0C207.6,372.9,208.9,372,210.7,372Z"/><path d="M222.1,372h11.6c1.7,0,3,.9,3,2.2h0c0,1.3-1.3,2.2-3,2.2H222.1c-1.7,0-3-.9-3-2.2h0C219.1,372.9,220.4,372,222.1,372Z"/><path d="M233.6,372h5.9c1.8,0,3,.9,3,2.2h0c0,1.3-1.2,2.2-3,2.2h-5.9c-1.7,0-3-.9-3-2.2h0C230.6,372.9,231.9,372,233.6,372Z"/><path d="M239.5,372H251c1.7,0,3,.9,3,2.2h0c0,1.3-1.3,2.2-3,2.2H239.5c-1.8,0-3.1-.9-3.1-2.2h0C236.4,372.9,237.7,372,239.5,372Z"/><path d="M250.9,372h11.5c1.8,0,3.1.9,3.1,2.2h0c0,1.3-1.3,2.2-3.1,2.2H250.9c-1.7,0-3-.9-3-2.2h0C247.9,372.9,249.2,372,250.9,372Z"/><path d="M274.7,372h11.5c1.7,0,3,.9,3,2.2h0c0,1.3-1.3,2.2-3,2.2H274.7c-1.8,0-3.1-.9-3.1-2.2h0C271.6,372.9,272.9,372,274.7,372Z"/><path d="M286.1,372h11.5c1.8,0,3.1.9,3.1,2.2h0c0,1.3-1.3,2.2-3.1,2.2H286.1c-1.7,0-3-.9-3-2.2h0C283.1,372.9,284.4,372,286.1,372Z"/><path d="M309.8,372h11.6c1.7,0,3,.9,3,2.2h0c0,1.3-1.3,2.2-3,2.2H309.8c-1.7,0-3-.9-3-2.2h0C306.8,372.9,308.1,372,309.8,372Z"/><path d="M321.3,372h11.5c1.8,0,3.1.9,3.1,2.2h0c0,1.3-1.3,2.2-3.1,2.2H321.3c-1.7,0-3-.9-3-2.2h0C318.3,372.9,319.6,372,321.3,372Z"/><path d="M332.8,372h5.9c1.7,0,3,.9,3,2.2h0c0,1.3-1.3,2.2-3,2.2h-5.9c-1.8,0-3.1-.9-3.1-2.2h0C329.7,372.9,331,372,332.8,372Z"/><path d="M338.6,372h5.9c1.8,0,3.1.9,3.1,2.2h0c0,1.3-1.3,2.2-3.1,2.2h-5.9c-1.7,0-3-.9-3-2.2h0C335.6,372.9,336.9,372,338.6,372Z"/><path d="M344.5,372h5.8c1.8,0,3.1.9,3.1,2.2h0c0,1.3-1.3,2.2-3.1,2.2h-5.8c-1.8,0-3.1-.9-3.1-2.2h0C341.4,372.9,342.7,372,344.5,372Z"/><path d="M350.3,372h11.5c1.8,0,3.1.9,3.1,2.2h0c0,1.3-1.3,2.2-3.1,2.2H350.3c-1.7,0-3-.9-3-2.2h0C347.3,372.9,348.6,372,350.3,372Z"/></g><g class="f"><path d="M197.3,351.3h6.5c1.1,0,1.8.6,1.8,1.3h0c0,.8-.7,1.3-1.8,1.3h-6.5c-1,0-1.8-.5-1.8-1.3h0C195.5,351.9,196.3,351.3,197.3,351.3Z"/><path d="M203.8,351.3h6.6c1,0,1.7.6,1.7,1.3h0c0,.8-.7,1.3-1.7,1.3h-6.6c-1,0-1.7-.5-1.7-1.3h0C202.1,351.9,202.8,351.3,203.8,351.3Z"/><path d="M210.4,351.3H217c1,0,1.7.6,1.7,1.3h0c0,.8-.7,1.3-1.7,1.3h-6.6c-1,0-1.8-.5-1.8-1.3h0C208.6,351.9,209.4,351.3,210.4,351.3Z"/><path d="M223.9,351.3h6.6c1,0,1.8.6,1.8,1.3h0c0,.8-.8,1.3-1.8,1.3h-6.6c-1,0-1.7-.5-1.7-1.3h0C222.2,351.9,222.9,351.3,223.9,351.3Z"/><path d="M230.5,351.3h6.6c1,0,1.7.6,1.7,1.3h0c0,.8-.7,1.3-1.7,1.3h-6.6c-1,0-1.8-.5-1.8-1.3h0C228.7,351.9,229.5,351.3,230.5,351.3Z"/><path d="M237,351.3h6.6c1,0,1.8.6,1.8,1.3h0c0,.8-.8,1.3-1.8,1.3H237c-1,0-1.7-.5-1.7-1.3h0C235.3,351.9,236,351.3,237,351.3Z"/><path d="M250.6,351.3h6.6c1,0,1.7.6,1.7,1.3h0c0,.8-.7,1.3-1.7,1.3h-6.6c-1,0-1.7-.5-1.7-1.3h0C248.9,351.9,249.6,351.3,250.6,351.3Z"/><path d="M257.2,351.3h6.5c1,0,1.8.6,1.8,1.3h0c0,.8-.8,1.3-1.8,1.3h-6.5c-1,0-1.8-.5-1.8-1.3h0C255.4,351.9,256.2,351.3,257.2,351.3Z"/><path d="M263.7,351.3h6.6c1,0,1.7.6,1.7,1.3h0c0,.8-.7,1.3-1.7,1.3h-6.6c-1,0-1.7-.5-1.7-1.3h0C262,351.9,262.7,351.3,263.7,351.3Z"/><path d="M270.3,351.3h6.5c1.1,0,1.8.6,1.8,1.3h0c0,.8-.7,1.3-1.8,1.3h-6.5c-1,0-1.8-.5-1.8-1.3h0C268.5,351.9,269.3,351.3,270.3,351.3Z"/></g><rect x="175.9" y="276.7" width="364.2" height="57.41"/><rect class="i" x="175.9" y="276.9" width="364.2" height="57.05"/><g class="f"><path d="M199.2,312h11.5c1.8,0,3.1.9,3.1,2.2h0c0,1.3-1.3,2.2-3.1,2.2H199.2c-1.8,0-3-.9-3-2.2h0C196.2,312.9,197.4,312,199.2,312Z"/><path d="M210.7,312h11.5c1.7,0,3,.9,3,2.2h0c0,1.3-1.3,2.2-3,2.2H210.7c-1.8,0-3.1-.9-3.1-2.2h0C207.6,312.9,208.9,312,210.7,312Z"/><path d="M222.1,312h11.6c1.7,0,3,.9,3,2.2h0c0,1.3-1.3,2.2-3,2.2H222.1c-1.7,0-3-.9-3-2.2h0C219.1,312.9,220.4,312,222.1,312Z"/><path d="M233.6,312h5.9c1.8,0,3,.9,3,2.2h0c0,1.3-1.2,2.2-3,2.2h-5.9c-1.7,0-3-.9-3-2.2h0C230.6,312.9,231.9,312,233.6,312Z"/><path d="M239.5,312H251c1.7,0,3,.9,3,2.2h0c0,1.3-1.3,2.2-3,2.2H239.5c-1.8,0-3.1-.9-3.1-2.2h0C236.4,312.9,237.7,312,239.5,312Z"/><path d="M250.9,312h11.5c1.8,0,3.1.9,3.1,2.2h0c0,1.3-1.3,2.2-3.1,2.2H250.9c-1.7,0-3-.9-3-2.2h0C247.9,312.9,249.2,312,250.9,312Z"/><path d="M274.7,312h11.5c1.7,0,3,.9,3,2.2h0c0,1.3-1.3,2.2-3,2.2H274.7c-1.8,0-3.1-.9-3.1-2.2h0C271.6,312.9,272.9,312,274.7,312Z"/><path d="M286.1,312h11.5c1.8,0,3.1.9,3.1,2.2h0c0,1.3-1.3,2.2-3.1,2.2H286.1c-1.7,0-3-.9-3-2.2h0C283.1,312.9,284.4,312,286.1,312Z"/><path d="M309.8,312h11.6c1.7,0,3,.9,3,2.2h0c0,1.3-1.3,2.2-3,2.2H309.8c-1.7,0-3-.9-3-2.2h0C306.8,312.9,308.1,312,309.8,312Z"/><path d="M321.3,312h11.5c1.8,0,3.1.9,3.1,2.2h0c0,1.3-1.3,2.2-3.1,2.2H321.3c-1.7,0-3-.9-3-2.2h0C318.3,312.9,319.6,312,321.3,312Z"/><path d="M332.8,312h5.9c1.7,0,3,.9,3,2.2h0c0,1.3-1.3,2.2-3,2.2h-5.9c-1.8,0-3.1-.9-3.1-2.2h0C329.7,312.9,331,312,332.8,312Z"/><path d="M338.6,312h5.9c1.8,0,3.1.9,3.1,2.2h0c0,1.3-1.3,2.2-3.1,2.2h-5.9c-1.7,0-3-.9-3-2.2h0C335.6,312.9,336.9,312,338.6,312Z"/><path d="M344.5,312h5.8c1.8,0,3.1.9,3.1,2.2h0c0,1.3-1.3,2.2-3.1,2.2h-5.8c-1.8,0-3.1-.9-3.1-2.2h0C341.4,312.9,342.7,312,344.5,312Z"/><path d="M350.3,312h11.5c1.8,0,3.1.9,3.1,2.2h0c0,1.3-1.3,2.2-3.1,2.2H350.3c-1.7,0-3-.9-3-2.2h0C347.3,312.9,348.6,312,350.3,312Z"/></g><g class="f"><path d="M197.3,291.3h6.5c1.1,0,1.8.6,1.8,1.3h0c0,.8-.7,1.3-1.8,1.3h-6.5c-1,0-1.8-.5-1.8-1.3h0C195.5,291.9,196.3,291.3,197.3,291.3Z"/><path d="M203.8,291.3h6.6c1,0,1.7.6,1.7,1.3h0c0,.8-.7,1.3-1.7,1.3h-6.6c-1,0-1.7-.5-1.7-1.3h0C202.1,291.9,202.8,291.3,203.8,291.3Z"/><path d="M210.4,291.3H217c1,0,1.7.6,1.7,1.3h0c0,.8-.7,1.3-1.7,1.3h-6.6c-1,0-1.8-.5-1.8-1.3h0C208.6,291.9,209.4,291.3,210.4,291.3Z"/><path d="M223.9,291.3h6.6c1,0,1.8.6,1.8,1.3h0c0,.8-.8,1.3-1.8,1.3h-6.6c-1,0-1.7-.5-1.7-1.3h0C222.2,291.9,222.9,291.3,223.9,291.3Z"/><path d="M230.5,291.3h6.6c1,0,1.7.6,1.7,1.3h0c0,.8-.7,1.3-1.7,1.3h-6.6c-1,0-1.8-.5-1.8-1.3h0C228.7,291.9,229.5,291.3,230.5,291.3Z"/><path d="M237,291.3h6.6c1,0,1.8.6,1.8,1.3h0c0,.8-.8,1.3-1.8,1.3H237c-1,0-1.7-.5-1.7-1.3h0C235.3,291.9,236,291.3,237,291.3Z"/><path d="M250.6,291.3h6.6c1,0,1.7.6,1.7,1.3h0c0,.8-.7,1.3-1.7,1.3h-6.6c-1,0-1.7-.5-1.7-1.3h0C248.9,291.9,249.6,291.3,250.6,291.3Z"/><path d="M257.2,291.3h6.5c1,0,1.8.6,1.8,1.3h0c0,.8-.8,1.3-1.8,1.3h-6.5c-1,0-1.8-.5-1.8-1.3h0C255.4,291.9,256.2,291.3,257.2,291.3Z"/><path d="M263.7,291.3h6.6c1,0,1.7.6,1.7,1.3h0c0,.8-.7,1.3-1.7,1.3h-6.6c-1,0-1.7-.5-1.7-1.3h0C262,291.9,262.7,291.3,263.7,291.3Z"/><path d="M270.3,291.3h6.5c1.1,0,1.8.6,1.8,1.3h0c0,.8-.7,1.3-1.8,1.3h-6.5c-1,0-1.8-.5-1.8-1.3h0C268.5,291.9,269.3,291.3,270.3,291.3Z"/></g><rect x="356.9" y="397.1" width="183.2" height="57.41"/><rect class="i" x="356.9" y="397.3" width="183.2" height="57.05"/><g class="f"><path d="M374.1,432.4h8.5a2.1,2.1,0,0,1,2.2,2.2h0a2.1,2.1,0,0,1-2.2,2.2h-8.5a2.1,2.1,0,0,1-2.2-2.2h0A2.1,2.1,0,0,1,374.1,432.4Z"/><path d="M382.6,432.4h8.5a2.1,2.1,0,0,1,2.2,2.2h0a2.1,2.1,0,0,1-2.2,2.2h-8.5a2.2,2.2,0,0,1-2.3-2.2h0A2.2,2.2,0,0,1,382.6,432.4Z"/><path d="M391,432.4h8.5a2.2,2.2,0,0,1,2.3,2.2h0a2.2,2.2,0,0,1-2.3,2.2H391a2.1,2.1,0,0,1-2.2-2.2h0A2.1,2.1,0,0,1,391,432.4Z"/><path d="M399.5,432.4h4.3a2.2,2.2,0,0,1,2.3,2.2h0a2.2,2.2,0,0,1-2.3,2.2h-4.3a2.1,2.1,0,0,1-2.2-2.2h0A2.1,2.1,0,0,1,399.5,432.4Z"/><path d="M403.8,432.4h8.5a2.2,2.2,0,0,1,2.3,2.2h0a2.2,2.2,0,0,1-2.3,2.2h-8.5a2.1,2.1,0,0,1-2.2-2.2h0A2.1,2.1,0,0,1,403.8,432.4Z"/><path d="M412.3,432.4h8.5a2.1,2.1,0,0,1,2.2,2.2h0a2.1,2.1,0,0,1-2.2,2.2h-8.5a2.2,2.2,0,0,1-2.3-2.2h0A2.2,2.2,0,0,1,412.3,432.4Z"/><path d="M429.8,432.4h8.5a2.1,2.1,0,0,1,2.2,2.2h0a2.1,2.1,0,0,1-2.2,2.2h-8.5a2.1,2.1,0,0,1-2.2-2.2h0A2.1,2.1,0,0,1,429.8,432.4Z"/><path d="M438.3,432.4h8.5a2.1,2.1,0,0,1,2.2,2.2h0a2.1,2.1,0,0,1-2.2,2.2h-8.5a2.2,2.2,0,0,1-2.3-2.2h0A2.2,2.2,0,0,1,438.3,432.4Z"/><path d="M455.8,432.4h8.5a2.1,2.1,0,0,1,2.2,2.2h0a2.1,2.1,0,0,1-2.2,2.2h-8.5a2.2,2.2,0,0,1-2.3-2.2h0A2.2,2.2,0,0,1,455.8,432.4Z"/><path d="M464.2,432.4h8.5a2.2,2.2,0,0,1,2.3,2.2h0a2.2,2.2,0,0,1-2.3,2.2h-8.5a2.2,2.2,0,0,1-2.2-2.2h0A2.2,2.2,0,0,1,464.2,432.4Z"/><path d="M472.7,432.4h4.4a2.1,2.1,0,0,1,2.2,2.2h0a2.1,2.1,0,0,1-2.2,2.2h-4.4a2.1,2.1,0,0,1-2.2-2.2h0A2.1,2.1,0,0,1,472.7,432.4Z"/><path d="M477,432.4h4.4a2.1,2.1,0,0,1,2.2,2.2h0a2.1,2.1,0,0,1-2.2,2.2H477a2.1,2.1,0,0,1-2.2-2.2h0A2.1,2.1,0,0,1,477,432.4Z"/><path d="M481.3,432.4h4.4a2.1,2.1,0,0,1,2.2,2.2h0a2.1,2.1,0,0,1-2.2,2.2h-4.4a2.1,2.1,0,0,1-2.2-2.2h0A2.1,2.1,0,0,1,481.3,432.4Z"/><path d="M485.6,432.4h8.5a2.2,2.2,0,0,1,2.3,2.2h0a2.2,2.2,0,0,1-2.3,2.2h-8.5a2.2,2.2,0,0,1-2.2-2.2h0A2.2,2.2,0,0,1,485.6,432.4Z"/></g><g class="f"><path d="M372.7,411.7h4.8a1.3,1.3,0,0,1,1.3,1.3h0a1.2,1.2,0,0,1-1.3,1.3h-4.8a1.2,1.2,0,0,1-1.3-1.3h0A1.3,1.3,0,0,1,372.7,411.7Z"/><path d="M377.5,411.7h4.9a1.2,1.2,0,0,1,1.2,1.3h0a1.2,1.2,0,0,1-1.2,1.3h-4.9a1.3,1.3,0,0,1-1.3-1.3h0A1.3,1.3,0,0,1,377.5,411.7Z"/><path d="M382.3,411.7h4.9a1.3,1.3,0,0,1,1.3,1.3h0a1.3,1.3,0,0,1-1.3,1.3h-4.9a1.2,1.2,0,0,1-1.2-1.3h0A1.2,1.2,0,0,1,382.3,411.7Z"/><path d="M392.4,411.7h4.8a1.3,1.3,0,0,1,1.3,1.3h0a1.3,1.3,0,0,1-1.3,1.3h-4.8a1.2,1.2,0,0,1-1.3-1.3h0A1.3,1.3,0,0,1,392.4,411.7Z"/><path d="M397.2,411.7H402a1.3,1.3,0,0,1,1.3,1.3h0a1.2,1.2,0,0,1-1.3,1.3h-4.8a1.3,1.3,0,0,1-1.3-1.3h0A1.3,1.3,0,0,1,397.2,411.7Z"/><path d="M402,411.7h4.9a1.3,1.3,0,0,1,1.3,1.3h0a1.3,1.3,0,0,1-1.3,1.3H402a1.2,1.2,0,0,1-1.2-1.3h0A1.2,1.2,0,0,1,402,411.7Z"/><path d="M412,411.7h4.9a1.3,1.3,0,0,1,1.3,1.3h0a1.3,1.3,0,0,1-1.3,1.3H412a1.2,1.2,0,0,1-1.2-1.3h0A1.2,1.2,0,0,1,412,411.7Z"/><path d="M416.9,411.7h4.8A1.3,1.3,0,0,1,423,413h0a1.2,1.2,0,0,1-1.3,1.3h-4.8a1.2,1.2,0,0,1-1.3-1.3h0A1.3,1.3,0,0,1,416.9,411.7Z"/><path d="M421.7,411.7h4.9a1.3,1.3,0,0,1,1.3,1.3h0a1.3,1.3,0,0,1-1.3,1.3h-4.9a1.3,1.3,0,0,1-1.3-1.3h0A1.3,1.3,0,0,1,421.7,411.7Z"/><path d="M426.6,411.7h4.8a1.3,1.3,0,0,1,1.3,1.3h0a1.2,1.2,0,0,1-1.3,1.3h-4.8a1.2,1.2,0,0,1-1.3-1.3h0A1.3,1.3,0,0,1,426.6,411.7Z"/></g><rect x="175.9" y="397.1" width="183.2" height="57.41"/><rect class="i" x="175.9" y="397.3" width="183.2" height="57.05"/><g class="f"><path d="M193.1,432.4h8.5a2.1,2.1,0,0,1,2.2,2.2h0a2.1,2.1,0,0,1-2.2,2.2h-8.5a2.1,2.1,0,0,1-2.2-2.2h0A2.1,2.1,0,0,1,193.1,432.4Z"/><path d="M201.6,432.4h8.5a2.1,2.1,0,0,1,2.2,2.2h0a2.1,2.1,0,0,1-2.2,2.2h-8.5a2.2,2.2,0,0,1-2.3-2.2h0A2.2,2.2,0,0,1,201.6,432.4Z"/><path d="M210,432.4h8.5a2.2,2.2,0,0,1,2.3,2.2h0a2.2,2.2,0,0,1-2.3,2.2H210a2.1,2.1,0,0,1-2.2-2.2h0A2.1,2.1,0,0,1,210,432.4Z"/><path d="M218.5,432.4h4.3a2.2,2.2,0,0,1,2.3,2.2h0a2.2,2.2,0,0,1-2.3,2.2h-4.3a2.1,2.1,0,0,1-2.2-2.2h0A2.1,2.1,0,0,1,218.5,432.4Z"/><path d="M222.8,432.4h8.5a2.2,2.2,0,0,1,2.3,2.2h0a2.2,2.2,0,0,1-2.3,2.2h-8.5a2.1,2.1,0,0,1-2.2-2.2h0A2.1,2.1,0,0,1,222.8,432.4Z"/><path d="M231.3,432.4h8.5a2.1,2.1,0,0,1,2.2,2.2h0a2.1,2.1,0,0,1-2.2,2.2h-8.5a2.2,2.2,0,0,1-2.3-2.2h0A2.2,2.2,0,0,1,231.3,432.4Z"/><path d="M248.8,432.4h8.5a2.1,2.1,0,0,1,2.2,2.2h0a2.1,2.1,0,0,1-2.2,2.2h-8.5a2.1,2.1,0,0,1-2.2-2.2h0A2.1,2.1,0,0,1,248.8,432.4Z"/><path d="M257.3,432.4h8.5a2.1,2.1,0,0,1,2.2,2.2h0a2.1,2.1,0,0,1-2.2,2.2h-8.5a2.2,2.2,0,0,1-2.3-2.2h0A2.2,2.2,0,0,1,257.3,432.4Z"/><path d="M274.8,432.4h8.5a2.1,2.1,0,0,1,2.2,2.2h0a2.1,2.1,0,0,1-2.2,2.2h-8.5a2.2,2.2,0,0,1-2.3-2.2h0A2.2,2.2,0,0,1,274.8,432.4Z"/><path d="M283.2,432.4h8.5a2.2,2.2,0,0,1,2.3,2.2h0a2.2,2.2,0,0,1-2.3,2.2h-8.5a2.2,2.2,0,0,1-2.2-2.2h0A2.2,2.2,0,0,1,283.2,432.4Z"/><path d="M291.7,432.4h4.4a2.1,2.1,0,0,1,2.2,2.2h0a2.1,2.1,0,0,1-2.2,2.2h-4.4a2.1,2.1,0,0,1-2.2-2.2h0A2.1,2.1,0,0,1,291.7,432.4Z"/><path d="M296,432.4h4.4a2.1,2.1,0,0,1,2.2,2.2h0a2.1,2.1,0,0,1-2.2,2.2H296a2.1,2.1,0,0,1-2.2-2.2h0A2.1,2.1,0,0,1,296,432.4Z"/><path d="M300.3,432.4h4.4a2.1,2.1,0,0,1,2.2,2.2h0a2.1,2.1,0,0,1-2.2,2.2h-4.4a2.1,2.1,0,0,1-2.2-2.2h0A2.1,2.1,0,0,1,300.3,432.4Z"/><path d="M304.6,432.4h8.5a2.2,2.2,0,0,1,2.3,2.2h0a2.2,2.2,0,0,1-2.3,2.2h-8.5a2.2,2.2,0,0,1-2.2-2.2h0A2.2,2.2,0,0,1,304.6,432.4Z"/></g><g class="f"><path d="M191.7,411.7h4.8a1.3,1.3,0,0,1,1.3,1.3h0a1.2,1.2,0,0,1-1.3,1.3h-4.8a1.2,1.2,0,0,1-1.3-1.3h0A1.3,1.3,0,0,1,191.7,411.7Z"/><path d="M196.5,411.7h4.9a1.2,1.2,0,0,1,1.2,1.3h0a1.2,1.2,0,0,1-1.2,1.3h-4.9a1.3,1.3,0,0,1-1.3-1.3h0A1.3,1.3,0,0,1,196.5,411.7Z"/><path d="M201.3,411.7h4.9a1.3,1.3,0,0,1,1.3,1.3h0a1.3,1.3,0,0,1-1.3,1.3h-4.9a1.2,1.2,0,0,1-1.2-1.3h0A1.2,1.2,0,0,1,201.3,411.7Z"/><path d="M211.4,411.7h4.8a1.3,1.3,0,0,1,1.3,1.3h0a1.3,1.3,0,0,1-1.3,1.3h-4.8a1.2,1.2,0,0,1-1.3-1.3h0A1.3,1.3,0,0,1,211.4,411.7Z"/><path d="M216.2,411.7H221a1.3,1.3,0,0,1,1.3,1.3h0a1.2,1.2,0,0,1-1.3,1.3h-4.8a1.3,1.3,0,0,1-1.3-1.3h0A1.3,1.3,0,0,1,216.2,411.7Z"/><path d="M221,411.7h4.9a1.3,1.3,0,0,1,1.3,1.3h0a1.3,1.3,0,0,1-1.3,1.3H221a1.2,1.2,0,0,1-1.2-1.3h0A1.2,1.2,0,0,1,221,411.7Z"/><path d="M231,411.7h4.9a1.3,1.3,0,0,1,1.3,1.3h0a1.3,1.3,0,0,1-1.3,1.3H231a1.2,1.2,0,0,1-1.2-1.3h0A1.2,1.2,0,0,1,231,411.7Z"/><path d="M235.9,411.7h4.8A1.3,1.3,0,0,1,242,413h0a1.2,1.2,0,0,1-1.3,1.3h-4.8a1.2,1.2,0,0,1-1.3-1.3h0A1.3,1.3,0,0,1,235.9,411.7Z"/><path d="M240.7,411.7h4.9a1.3,1.3,0,0,1,1.3,1.3h0a1.3,1.3,0,0,1-1.3,1.3h-4.9a1.3,1.3,0,0,1-1.3-1.3h0A1.3,1.3,0,0,1,240.7,411.7Z"/><path d="M245.6,411.7h4.8a1.3,1.3,0,0,1,1.3,1.3h0a1.2,1.2,0,0,1-1.3,1.3h-4.8a1.2,1.2,0,0,1-1.3-1.3h0A1.3,1.3,0,0,1,245.6,411.7Z"/></g></g><rect class="e" x="180.9" y="331.7" width="364.2" height="57.41"/><rect class="j" x="180.9" y="331.9" width="364.2" height="57.05"/><g class="f"><g class="f"><path d="M204.2,367h11.5c1.8,0,3.1.9,3.1,2.2h0c0,1.3-1.3,2.2-3.1,2.2H204.2c-1.8,0-3-.9-3-2.2h0C201.2,367.9,202.4,367,204.2,367Z"/><path d="M215.7,367h11.5c1.7,0,3,.9,3,2.2h0c0,1.3-1.3,2.2-3,2.2H215.7c-1.8,0-3.1-.9-3.1-2.2h0C212.6,367.9,213.9,367,215.7,367Z"/><path d="M227.1,367h11.6c1.7,0,3,.9,3,2.2h0c0,1.3-1.3,2.2-3,2.2H227.1c-1.7,0-3-.9-3-2.2h0C224.1,367.9,225.4,367,227.1,367Z"/><path d="M238.6,367h5.9c1.8,0,3,.9,3,2.2h0c0,1.3-1.2,2.2-3,2.2h-5.9c-1.7,0-3-.9-3-2.2h0C235.6,367.9,236.9,367,238.6,367Z"/><path d="M244.5,367H256c1.7,0,3,.9,3,2.2h0c0,1.3-1.3,2.2-3,2.2H244.5c-1.8,0-3.1-.9-3.1-2.2h0C241.4,367.9,242.7,367,244.5,367Z"/><path d="M255.9,367h11.5c1.8,0,3.1.9,3.1,2.2h0c0,1.3-1.3,2.2-3.1,2.2H255.9c-1.7,0-3-.9-3-2.2h0C252.9,367.9,254.2,367,255.9,367Z"/><path d="M279.7,367h11.5c1.7,0,3,.9,3,2.2h0c0,1.3-1.3,2.2-3,2.2H279.7c-1.8,0-3.1-.9-3.1-2.2h0C276.6,367.9,277.9,367,279.7,367Z"/><path d="M291.1,367h11.5c1.8,0,3.1.9,3.1,2.2h0c0,1.3-1.3,2.2-3.1,2.2H291.1c-1.7,0-3-.9-3-2.2h0C288.1,367.9,289.4,367,291.1,367Z"/><path d="M314.8,367h11.6c1.7,0,3,.9,3,2.2h0c0,1.3-1.3,2.2-3,2.2H314.8c-1.7,0-3-.9-3-2.2h0C311.8,367.9,313.1,367,314.8,367Z"/><path d="M326.3,367h11.5c1.8,0,3.1.9,3.1,2.2h0c0,1.3-1.3,2.2-3.1,2.2H326.3c-1.7,0-3-.9-3-2.2h0C323.3,367.9,324.6,367,326.3,367Z"/><path d="M337.8,367h5.9c1.7,0,3,.9,3,2.2h0c0,1.3-1.3,2.2-3,2.2h-5.9c-1.8,0-3.1-.9-3.1-2.2h0C334.7,367.9,336,367,337.8,367Z"/><path d="M343.6,367h5.9c1.8,0,3.1.9,3.1,2.2h0c0,1.3-1.3,2.2-3.1,2.2h-5.9c-1.7,0-3-.9-3-2.2h0C340.6,367.9,341.9,367,343.6,367Z"/><path d="M349.5,367h5.8c1.8,0,3.1.9,3.1,2.2h0c0,1.3-1.3,2.2-3.1,2.2h-5.8c-1.8,0-3.1-.9-3.1-2.2h0C346.4,367.9,347.7,367,349.5,367Z"/><path d="M355.3,367h11.5c1.8,0,3.1.9,3.1,2.2h0c0,1.3-1.3,2.2-3.1,2.2H355.3c-1.7,0-3-.9-3-2.2h0C352.3,367.9,353.6,367,355.3,367Z"/></g></g><g class="f"><g class="f"><path class="k" d="M202.3,346.3h6.5c1.1,0,1.8.6,1.8,1.3h0c0,.8-.7,1.3-1.8,1.3h-6.5c-1,0-1.8-.5-1.8-1.3h0C200.5,346.9,201.3,346.3,202.3,346.3Z"/><path class="k" d="M208.8,346.3h6.6c1,0,1.7.6,1.7,1.3h0c0,.8-.7,1.3-1.7,1.3h-6.6c-1,0-1.7-.5-1.7-1.3h0C207.1,346.9,207.8,346.3,208.8,346.3Z"/><path class="k" d="M215.4,346.3H222c1,0,1.7.6,1.7,1.3h0c0,.8-.7,1.3-1.7,1.3h-6.6c-1,0-1.8-.5-1.8-1.3h0C213.6,346.9,214.4,346.3,215.4,346.3Z"/><path class="k" d="M228.9,346.3h6.6c1,0,1.8.6,1.8,1.3h0c0,.8-.8,1.3-1.8,1.3h-6.6c-1,0-1.7-.5-1.7-1.3h0C227.2,346.9,227.9,346.3,228.9,346.3Z"/><path class="k" d="M235.5,346.3h6.6c1,0,1.7.6,1.7,1.3h0c0,.8-.7,1.3-1.7,1.3h-6.6c-1,0-1.8-.5-1.8-1.3h0C233.7,346.9,234.5,346.3,235.5,346.3Z"/><path class="k" d="M242,346.3h6.6c1,0,1.8.6,1.8,1.3h0c0,.8-.8,1.3-1.8,1.3H242c-1,0-1.7-.5-1.7-1.3h0C240.3,346.9,241,346.3,242,346.3Z"/><path class="k" d="M255.6,346.3h6.6c1,0,1.7.6,1.7,1.3h0c0,.8-.7,1.3-1.7,1.3h-6.6c-1,0-1.7-.5-1.7-1.3h0C253.9,346.9,254.6,346.3,255.6,346.3Z"/><path class="k" d="M262.2,346.3h6.5c1,0,1.8.6,1.8,1.3h0c0,.8-.8,1.3-1.8,1.3h-6.5c-1,0-1.8-.5-1.8-1.3h0C260.4,346.9,261.2,346.3,262.2,346.3Z"/><path class="k" d="M268.7,346.3h6.6c1,0,1.7.6,1.7,1.3h0c0,.8-.7,1.3-1.7,1.3h-6.6c-1,0-1.7-.5-1.7-1.3h0C267,346.9,267.7,346.3,268.7,346.3Z"/><path class="k" d="M275.3,346.3h6.5c1.1,0,1.8.6,1.8,1.3h0c0,.8-.7,1.3-1.8,1.3h-6.5c-1,0-1.8-.5-1.8-1.3h0C273.5,346.9,274.3,346.3,275.3,346.3Z"/></g></g><rect class="e" x="180.9" y="271.7" width="364.2" height="57.41"/><rect class="j" x="180.9" y="271.9" width="364.2" height="57.05"/><g class="f"><g class="f"><path d="M204.2,307h11.5c1.8,0,3.1.9,3.1,2.2h0c0,1.3-1.3,2.2-3.1,2.2H204.2c-1.8,0-3-.9-3-2.2h0C201.2,307.9,202.4,307,204.2,307Z"/><path d="M215.7,307h11.5c1.7,0,3,.9,3,2.2h0c0,1.3-1.3,2.2-3,2.2H215.7c-1.8,0-3.1-.9-3.1-2.2h0C212.6,307.9,213.9,307,215.7,307Z"/><path d="M227.1,307h11.6c1.7,0,3,.9,3,2.2h0c0,1.3-1.3,2.2-3,2.2H227.1c-1.7,0-3-.9-3-2.2h0C224.1,307.9,225.4,307,227.1,307Z"/><path d="M238.6,307h5.9c1.8,0,3,.9,3,2.2h0c0,1.3-1.2,2.2-3,2.2h-5.9c-1.7,0-3-.9-3-2.2h0C235.6,307.9,236.9,307,238.6,307Z"/><path d="M244.5,307H256c1.7,0,3,.9,3,2.2h0c0,1.3-1.3,2.2-3,2.2H244.5c-1.8,0-3.1-.9-3.1-2.2h0C241.4,307.9,242.7,307,244.5,307Z"/><path d="M255.9,307h11.5c1.8,0,3.1.9,3.1,2.2h0c0,1.3-1.3,2.2-3.1,2.2H255.9c-1.7,0-3-.9-3-2.2h0C252.9,307.9,254.2,307,255.9,307Z"/><path d="M279.7,307h11.5c1.7,0,3,.9,3,2.2h0c0,1.3-1.3,2.2-3,2.2H279.7c-1.8,0-3.1-.9-3.1-2.2h0C276.6,307.9,277.9,307,279.7,307Z"/><path d="M291.1,307h11.5c1.8,0,3.1.9,3.1,2.2h0c0,1.3-1.3,2.2-3.1,2.2H291.1c-1.7,0-3-.9-3-2.2h0C288.1,307.9,289.4,307,291.1,307Z"/><path d="M314.8,307h11.6c1.7,0,3,.9,3,2.2h0c0,1.3-1.3,2.2-3,2.2H314.8c-1.7,0-3-.9-3-2.2h0C311.8,307.9,313.1,307,314.8,307Z"/><path d="M326.3,307h11.5c1.8,0,3.1.9,3.1,2.2h0c0,1.3-1.3,2.2-3.1,2.2H326.3c-1.7,0-3-.9-3-2.2h0C323.3,307.9,324.6,307,326.3,307Z"/><path d="M337.8,307h5.9c1.7,0,3,.9,3,2.2h0c0,1.3-1.3,2.2-3,2.2h-5.9c-1.8,0-3.1-.9-3.1-2.2h0C334.7,307.9,336,307,337.8,307Z"/><path d="M343.6,307h5.9c1.8,0,3.1.9,3.1,2.2h0c0,1.3-1.3,2.2-3.1,2.2h-5.9c-1.7,0-3-.9-3-2.2h0C340.6,307.9,341.9,307,343.6,307Z"/><path d="M349.5,307h5.8c1.8,0,3.1.9,3.1,2.2h0c0,1.3-1.3,2.2-3.1,2.2h-5.8c-1.8,0-3.1-.9-3.1-2.2h0C346.4,307.9,347.7,307,349.5,307Z"/><path d="M355.3,307h11.5c1.8,0,3.1.9,3.1,2.2h0c0,1.3-1.3,2.2-3.1,2.2H355.3c-1.7,0-3-.9-3-2.2h0C352.3,307.9,353.6,307,355.3,307Z"/></g></g><g class="f"><g class="f"><path class="k" d="M202.3,286.3h6.5c1.1,0,1.8.6,1.8,1.3h0c0,.8-.7,1.3-1.8,1.3h-6.5c-1,0-1.8-.5-1.8-1.3h0C200.5,286.9,201.3,286.3,202.3,286.3Z"/><path class="k" d="M208.8,286.3h6.6c1,0,1.7.6,1.7,1.3h0c0,.8-.7,1.3-1.7,1.3h-6.6c-1,0-1.7-.5-1.7-1.3h0C207.1,286.9,207.8,286.3,208.8,286.3Z"/><path class="k" d="M215.4,286.3H222c1,0,1.7.6,1.7,1.3h0c0,.8-.7,1.3-1.7,1.3h-6.6c-1,0-1.8-.5-1.8-1.3h0C213.6,286.9,214.4,286.3,215.4,286.3Z"/><path class="k" d="M228.9,286.3h6.6c1,0,1.8.6,1.8,1.3h0c0,.8-.8,1.3-1.8,1.3h-6.6c-1,0-1.7-.5-1.7-1.3h0C227.2,286.9,227.9,286.3,228.9,286.3Z"/><path class="k" d="M235.5,286.3h6.6c1,0,1.7.6,1.7,1.3h0c0,.8-.7,1.3-1.7,1.3h-6.6c-1,0-1.8-.5-1.8-1.3h0C233.7,286.9,234.5,286.3,235.5,286.3Z"/><path class="k" d="M242,286.3h6.6c1,0,1.8.6,1.8,1.3h0c0,.8-.8,1.3-1.8,1.3H242c-1,0-1.7-.5-1.7-1.3h0C240.3,286.9,241,286.3,242,286.3Z"/><path class="k" d="M255.6,286.3h6.6c1,0,1.7.6,1.7,1.3h0c0,.8-.7,1.3-1.7,1.3h-6.6c-1,0-1.7-.5-1.7-1.3h0C253.9,286.9,254.6,286.3,255.6,286.3Z"/><path class="k" d="M262.2,286.3h6.5c1,0,1.8.6,1.8,1.3h0c0,.8-.8,1.3-1.8,1.3h-6.5c-1,0-1.8-.5-1.8-1.3h0C260.4,286.9,261.2,286.3,262.2,286.3Z"/><path class="k" d="M268.7,286.3h6.6c1,0,1.7.6,1.7,1.3h0c0,.8-.7,1.3-1.7,1.3h-6.6c-1,0-1.7-.5-1.7-1.3h0C267,286.9,267.7,286.3,268.7,286.3Z"/><path class="k" d="M275.3,286.3h6.5c1.1,0,1.8.6,1.8,1.3h0c0,.8-.7,1.3-1.8,1.3h-6.5c-1,0-1.8-.5-1.8-1.3h0C273.5,286.9,274.3,286.3,275.3,286.3Z"/></g></g><rect class="e" x="361.9" y="392.1" width="183.2" height="57.41"/><rect class="j" x="361.9" y="392.3" width="183.2" height="57.05"/><g class="f"><g class="f"><path d="M379.1,427.4h8.5a2.1,2.1,0,0,1,2.2,2.2h0a2.1,2.1,0,0,1-2.2,2.2h-8.5a2.1,2.1,0,0,1-2.2-2.2h0A2.1,2.1,0,0,1,379.1,427.4Z"/><path d="M387.6,427.4h8.5a2.1,2.1,0,0,1,2.2,2.2h0a2.1,2.1,0,0,1-2.2,2.2h-8.5a2.2,2.2,0,0,1-2.3-2.2h0A2.2,2.2,0,0,1,387.6,427.4Z"/><path d="M396,427.4h8.5a2.2,2.2,0,0,1,2.3,2.2h0a2.2,2.2,0,0,1-2.3,2.2H396a2.1,2.1,0,0,1-2.2-2.2h0A2.1,2.1,0,0,1,396,427.4Z"/><path d="M404.5,427.4h4.3a2.2,2.2,0,0,1,2.3,2.2h0a2.2,2.2,0,0,1-2.3,2.2h-4.3a2.1,2.1,0,0,1-2.2-2.2h0A2.1,2.1,0,0,1,404.5,427.4Z"/><path d="M408.8,427.4h8.5a2.2,2.2,0,0,1,2.3,2.2h0a2.2,2.2,0,0,1-2.3,2.2h-8.5a2.1,2.1,0,0,1-2.2-2.2h0A2.1,2.1,0,0,1,408.8,427.4Z"/><path d="M417.3,427.4h8.5a2.1,2.1,0,0,1,2.2,2.2h0a2.1,2.1,0,0,1-2.2,2.2h-8.5a2.2,2.2,0,0,1-2.3-2.2h0A2.2,2.2,0,0,1,417.3,427.4Z"/><path d="M434.8,427.4h8.5a2.1,2.1,0,0,1,2.2,2.2h0a2.1,2.1,0,0,1-2.2,2.2h-8.5a2.1,2.1,0,0,1-2.2-2.2h0A2.1,2.1,0,0,1,434.8,427.4Z"/><path d="M443.3,427.4h8.5a2.1,2.1,0,0,1,2.2,2.2h0a2.1,2.1,0,0,1-2.2,2.2h-8.5a2.2,2.2,0,0,1-2.3-2.2h0A2.2,2.2,0,0,1,443.3,427.4Z"/><path d="M460.8,427.4h8.5a2.1,2.1,0,0,1,2.2,2.2h0a2.1,2.1,0,0,1-2.2,2.2h-8.5a2.2,2.2,0,0,1-2.3-2.2h0A2.2,2.2,0,0,1,460.8,427.4Z"/><path d="M469.2,427.4h8.5a2.2,2.2,0,0,1,2.3,2.2h0a2.2,2.2,0,0,1-2.3,2.2h-8.5a2.2,2.2,0,0,1-2.2-2.2h0A2.2,2.2,0,0,1,469.2,427.4Z"/><path d="M477.7,427.4h4.4a2.1,2.1,0,0,1,2.2,2.2h0a2.1,2.1,0,0,1-2.2,2.2h-4.4a2.1,2.1,0,0,1-2.2-2.2h0A2.1,2.1,0,0,1,477.7,427.4Z"/><path d="M482,427.4h4.4a2.1,2.1,0,0,1,2.2,2.2h0a2.1,2.1,0,0,1-2.2,2.2H482a2.1,2.1,0,0,1-2.2-2.2h0A2.1,2.1,0,0,1,482,427.4Z"/><path d="M486.3,427.4h4.4a2.1,2.1,0,0,1,2.2,2.2h0a2.1,2.1,0,0,1-2.2,2.2h-4.4a2.1,2.1,0,0,1-2.2-2.2h0A2.1,2.1,0,0,1,486.3,427.4Z"/><path d="M490.6,427.4h8.5a2.2,2.2,0,0,1,2.3,2.2h0a2.2,2.2,0,0,1-2.3,2.2h-8.5a2.2,2.2,0,0,1-2.2-2.2h0A2.2,2.2,0,0,1,490.6,427.4Z"/></g></g><g class="f"><g class="f"><path class="k" d="M377.7,406.7h4.8a1.3,1.3,0,0,1,1.3,1.3h0a1.2,1.2,0,0,1-1.3,1.3h-4.8a1.2,1.2,0,0,1-1.3-1.3h0A1.3,1.3,0,0,1,377.7,406.7Z"/><path class="k" d="M382.5,406.7h4.9a1.2,1.2,0,0,1,1.2,1.3h0a1.2,1.2,0,0,1-1.2,1.3h-4.9a1.3,1.3,0,0,1-1.3-1.3h0A1.3,1.3,0,0,1,382.5,406.7Z"/><path class="k" d="M387.3,406.7h4.9a1.3,1.3,0,0,1,1.3,1.3h0a1.3,1.3,0,0,1-1.3,1.3h-4.9a1.2,1.2,0,0,1-1.2-1.3h0A1.2,1.2,0,0,1,387.3,406.7Z"/><path class="k" d="M397.4,406.7h4.8a1.3,1.3,0,0,1,1.3,1.3h0a1.3,1.3,0,0,1-1.3,1.3h-4.8a1.2,1.2,0,0,1-1.3-1.3h0A1.3,1.3,0,0,1,397.4,406.7Z"/><path class="k" d="M402.2,406.7H407a1.3,1.3,0,0,1,1.3,1.3h0a1.2,1.2,0,0,1-1.3,1.3h-4.8a1.3,1.3,0,0,1-1.3-1.3h0A1.3,1.3,0,0,1,402.2,406.7Z"/><path class="k" d="M407,406.7h4.9a1.3,1.3,0,0,1,1.3,1.3h0a1.3,1.3,0,0,1-1.3,1.3H407a1.2,1.2,0,0,1-1.2-1.3h0A1.2,1.2,0,0,1,407,406.7Z"/><path class="k" d="M417,406.7h4.9a1.3,1.3,0,0,1,1.3,1.3h0a1.3,1.3,0,0,1-1.3,1.3H417a1.2,1.2,0,0,1-1.2-1.3h0A1.2,1.2,0,0,1,417,406.7Z"/><path class="k" d="M421.9,406.7h4.8A1.3,1.3,0,0,1,428,408h0a1.2,1.2,0,0,1-1.3,1.3h-4.8a1.2,1.2,0,0,1-1.3-1.3h0A1.3,1.3,0,0,1,421.9,406.7Z"/><path class="k" d="M426.7,406.7h4.9a1.3,1.3,0,0,1,1.3,1.3h0a1.3,1.3,0,0,1-1.3,1.3h-4.9a1.3,1.3,0,0,1-1.3-1.3h0A1.3,1.3,0,0,1,426.7,406.7Z"/><path class="k" d="M431.6,406.7h4.8a1.3,1.3,0,0,1,1.3,1.3h0a1.2,1.2,0,0,1-1.3,1.3h-4.8a1.2,1.2,0,0,1-1.3-1.3h0A1.3,1.3,0,0,1,431.6,406.7Z"/></g></g><rect class="e" x="180.9" y="392.1" width="183.2" height="57.41"/><rect class="j" x="180.9" y="392.3" width="183.2" height="57.05"/><g class="f"><g class="f"><path d="M198.1,427.4h8.5a2.1,2.1,0,0,1,2.2,2.2h0a2.1,2.1,0,0,1-2.2,2.2h-8.5a2.1,2.1,0,0,1-2.2-2.2h0A2.1,2.1,0,0,1,198.1,427.4Z"/><path d="M206.6,427.4h8.5a2.1,2.1,0,0,1,2.2,2.2h0a2.1,2.1,0,0,1-2.2,2.2h-8.5a2.2,2.2,0,0,1-2.3-2.2h0A2.2,2.2,0,0,1,206.6,427.4Z"/><path d="M215,427.4h8.5a2.2,2.2,0,0,1,2.3,2.2h0a2.2,2.2,0,0,1-2.3,2.2H215a2.1,2.1,0,0,1-2.2-2.2h0A2.1,2.1,0,0,1,215,427.4Z"/><path d="M223.5,427.4h4.3a2.2,2.2,0,0,1,2.3,2.2h0a2.2,2.2,0,0,1-2.3,2.2h-4.3a2.1,2.1,0,0,1-2.2-2.2h0A2.1,2.1,0,0,1,223.5,427.4Z"/><path d="M227.8,427.4h8.5a2.2,2.2,0,0,1,2.3,2.2h0a2.2,2.2,0,0,1-2.3,2.2h-8.5a2.1,2.1,0,0,1-2.2-2.2h0A2.1,2.1,0,0,1,227.8,427.4Z"/><path d="M236.3,427.4h8.5a2.1,2.1,0,0,1,2.2,2.2h0a2.1,2.1,0,0,1-2.2,2.2h-8.5a2.2,2.2,0,0,1-2.3-2.2h0A2.2,2.2,0,0,1,236.3,427.4Z"/><path d="M253.8,427.4h8.5a2.1,2.1,0,0,1,2.2,2.2h0a2.1,2.1,0,0,1-2.2,2.2h-8.5a2.1,2.1,0,0,1-2.2-2.2h0A2.1,2.1,0,0,1,253.8,427.4Z"/><path d="M262.3,427.4h8.5a2.1,2.1,0,0,1,2.2,2.2h0a2.1,2.1,0,0,1-2.2,2.2h-8.5a2.2,2.2,0,0,1-2.3-2.2h0A2.2,2.2,0,0,1,262.3,427.4Z"/><path d="M279.8,427.4h8.5a2.1,2.1,0,0,1,2.2,2.2h0a2.1,2.1,0,0,1-2.2,2.2h-8.5a2.2,2.2,0,0,1-2.3-2.2h0A2.2,2.2,0,0,1,279.8,427.4Z"/><path d="M288.2,427.4h8.5a2.2,2.2,0,0,1,2.3,2.2h0a2.2,2.2,0,0,1-2.3,2.2h-8.5a2.2,2.2,0,0,1-2.2-2.2h0A2.2,2.2,0,0,1,288.2,427.4Z"/><path d="M296.7,427.4h4.4a2.1,2.1,0,0,1,2.2,2.2h0a2.1,2.1,0,0,1-2.2,2.2h-4.4a2.1,2.1,0,0,1-2.2-2.2h0A2.1,2.1,0,0,1,296.7,427.4Z"/><path d="M301,427.4h4.4a2.1,2.1,0,0,1,2.2,2.2h0a2.1,2.1,0,0,1-2.2,2.2H301a2.1,2.1,0,0,1-2.2-2.2h0A2.1,2.1,0,0,1,301,427.4Z"/><path d="M305.3,427.4h4.4a2.1,2.1,0,0,1,2.2,2.2h0a2.1,2.1,0,0,1-2.2,2.2h-4.4a2.1,2.1,0,0,1-2.2-2.2h0A2.1,2.1,0,0,1,305.3,427.4Z"/><path d="M309.6,427.4h8.5a2.2,2.2,0,0,1,2.3,2.2h0a2.2,2.2,0,0,1-2.3,2.2h-8.5a2.2,2.2,0,0,1-2.2-2.2h0A2.2,2.2,0,0,1,309.6,427.4Z"/></g></g><g class="f"><g class="f"><path class="k" d="M196.7,406.7h4.8a1.3,1.3,0,0,1,1.3,1.3h0a1.2,1.2,0,0,1-1.3,1.3h-4.8a1.2,1.2,0,0,1-1.3-1.3h0A1.3,1.3,0,0,1,196.7,406.7Z"/><path class="k" d="M201.5,406.7h4.9a1.2,1.2,0,0,1,1.2,1.3h0a1.2,1.2,0,0,1-1.2,1.3h-4.9a1.3,1.3,0,0,1-1.3-1.3h0A1.3,1.3,0,0,1,201.5,406.7Z"/><path class="k" d="M206.3,406.7h4.9a1.3,1.3,0,0,1,1.3,1.3h0a1.3,1.3,0,0,1-1.3,1.3h-4.9a1.2,1.2,0,0,1-1.2-1.3h0A1.2,1.2,0,0,1,206.3,406.7Z"/><path class="k" d="M216.4,406.7h4.8a1.3,1.3,0,0,1,1.3,1.3h0a1.3,1.3,0,0,1-1.3,1.3h-4.8a1.2,1.2,0,0,1-1.3-1.3h0A1.3,1.3,0,0,1,216.4,406.7Z"/><path class="k" d="M221.2,406.7H226a1.3,1.3,0,0,1,1.3,1.3h0a1.2,1.2,0,0,1-1.3,1.3h-4.8a1.3,1.3,0,0,1-1.3-1.3h0A1.3,1.3,0,0,1,221.2,406.7Z"/><path class="k" d="M226,406.7h4.9a1.3,1.3,0,0,1,1.3,1.3h0a1.3,1.3,0,0,1-1.3,1.3H226a1.2,1.2,0,0,1-1.2-1.3h0A1.2,1.2,0,0,1,226,406.7Z"/><path class="k" d="M236,406.7h4.9a1.3,1.3,0,0,1,1.3,1.3h0a1.3,1.3,0,0,1-1.3,1.3H236a1.2,1.2,0,0,1-1.2-1.3h0A1.2,1.2,0,0,1,236,406.7Z"/><path class="k" d="M240.9,406.7h4.8A1.3,1.3,0,0,1,247,408h0a1.2,1.2,0,0,1-1.3,1.3h-4.8a1.2,1.2,0,0,1-1.3-1.3h0A1.3,1.3,0,0,1,240.9,406.7Z"/><path class="k" d="M245.7,406.7h4.9a1.3,1.3,0,0,1,1.3,1.3h0a1.3,1.3,0,0,1-1.3,1.3h-4.9a1.3,1.3,0,0,1-1.3-1.3h0A1.3,1.3,0,0,1,245.7,406.7Z"/><path class="k" d="M250.6,406.7h4.8a1.3,1.3,0,0,1,1.3,1.3h0a1.2,1.2,0,0,1-1.3,1.3h-4.8a1.2,1.2,0,0,1-1.3-1.3h0A1.3,1.3,0,0,1,250.6,406.7Z"/></g></g><rect class="l" x="182.3" y="96.3" width="361.5" height="158.6"/><path class="m" d="M309.3,211a1.4,1.4,0,0,1,0-2.1L331,187.1a4.3,4.3,0,0,1,5.9-.1l8,7.6a1.2,1.2,0,0,0,1.6,0l34.7-34.7a4.3,4.3,0,0,1,6,0l29.9,29.7a1.6,1.6,0,0,1-.1,2.2,1.5,1.5,0,0,1-2.1,0L385,162.1a1.2,1.2,0,0,0-1.6,0h0l-34.7,34.7a4.2,4.2,0,0,1-5.9,0l-8-7.5a1.2,1.2,0,0,0-1.6,0L311.5,211A1.4,1.4,0,0,1,309.3,211Zm8.7-53.5A15.6,15.6,0,1,1,333.5,173,15.5,15.5,0,0,1,318,157.5Zm3.1,0a12.5,12.5,0,1,0,12.4-12.4h0a12.4,12.4,0,0,0-12.4,12.4Z"/></svg>